  0
SECTION
  2
HEADER
  9
$ANGBASE
  50
0.0
  9
$ANGDIR
  70
1
  9
$MEASUREMENT
  70
1
  0
ENDSEC
  0
SECTION
  2
TABLES
  0
TABLE
  2
LTYPE
  70
4
  0
LTYPE
  5
40F
  2
CONTINUOUS
  70
0
  3
Solid line
  72
65
  73
0
  40
0.0
  0
LTYPE
  5
410
  2
DASHDOT
 70
0
  3
Dash Dot ____ _ ____ _
 72
65
 73
4
 40
2.0
 49
1.25
 49
-0.25
 49
0.25
 49
-0.25
  0
LTYPE
  5
411
  2
DASHED
 70
0
  3
Dashed __ __ __ __ __
 72
65
 73
2
 40
0.75
 49
0.5
 49
-0.25
  0
LTYPE
  5
43B
  2
DOTTED
 70
0
  3
Dotted .  .  .  .
 72
65
 73
2
 40
0.2
 49
0.0
 49
-0.2
  0
ENDTAB
  0
TABLE
  2
STYLE
  70
4
  0
STYLE
  2
KICAD
  70
0
  40
0
  41
1
  42
1
  50
0
  71
0
  3
isocp.shx
  0
STYLE
  2
KICADB
  70
0
  40
0
  41
1
  42
1
  50
0
  71
0
  3
isocp.shx
  0
STYLE
  2
KICADI
  70
0
  40
0
  41
1
  42
1
  50
15
  71
0
  3
isocp.shx
  0
STYLE
  2
KICADBI
  70
0
  40
0
  41
1
  42
1
  50
15
  71
0
  3
isocp.shx
  0
ENDTAB
  0
TABLE
  2
LAYER
  70
1
  0
LAYER
  2
BLACK
  70
0
  62
7
  6
CONTINUOUS
  0
ENDTAB
  0
ENDSEC
  0
SECTION
  2
ENTITIES
0
LINE
8
BLACK
6
CONTINUOUS
10
377.999
20
-121.975
11
378.001
21
-121.975
0
LINE
8
BLACK
6
CONTINUOUS
10
378.001
20
-121.975
11
378.001
21
-121.975
0
LINE
8
BLACK
6
CONTINUOUS
10
378.001
20
-121.975
11
378.003
21
-121.975
0
LINE
8
BLACK
6
CONTINUOUS
10
378.003
20
-121.975
11
378.004
21
-121.975
0
LINE
8
BLACK
6
CONTINUOUS
10
378.004
20
-121.975
11
378.005
21
-121.975
0
LINE
8
BLACK
6
CONTINUOUS
10
378.005
20
-121.975
11
378.006
21
-121.976
0
LINE
8
BLACK
6
CONTINUOUS
10
378.006
20
-121.976
11
378.006
21
-121.976
0
LINE
8
BLACK
6
CONTINUOUS
10
378.006
20
-121.976
11
378.007
21
-121.976
0
LINE
8
BLACK
6
CONTINUOUS
10
378.007
20
-121.976
11
378.01
21
-121.977
0
LINE
8
BLACK
6
CONTINUOUS
10
378.01
20
-121.977
11
378.01
21
-121.977
0
LINE
8
BLACK
6
CONTINUOUS
10
378.01
20
-121.977
11
414.008
21
-132.976
0
LINE
8
BLACK
6
CONTINUOUS
10
414.008
20
-132.976
11
414.01
21
-132.977
0
LINE
8
BLACK
6
CONTINUOUS
10
414.01
20
-132.977
11
414.011
21
-132.977
0
LINE
8
BLACK
6
CONTINUOUS
10
414.011
20
-132.977
11
414.012
21
-132.978
0
LINE
8
BLACK
6
CONTINUOUS
10
414.012
20
-132.978
11
414.013
21
-132.979
0
LINE
8
BLACK
6
CONTINUOUS
10
414.013
20
-132.979
11
414.014
21
-132.979
0
LINE
8
BLACK
6
CONTINUOUS
10
414.014
20
-132.979
11
414.015
21
-132.98
0
LINE
8
BLACK
6
CONTINUOUS
10
414.015
20
-132.98
11
414.016
21
-132.981
0
LINE
8
BLACK
6
CONTINUOUS
10
414.016
20
-132.981
11
414.017
21
-132.981
0
LINE
8
BLACK
6
CONTINUOUS
10
414.017
20
-132.981
11
414.018
21
-132.982
0
LINE
8
BLACK
6
CONTINUOUS
10
414.018
20
-132.982
11
414.019
21
-132.983
0
LINE
8
BLACK
6
CONTINUOUS
10
414.019
20
-132.983
11
414.019
21
-132.984
0
LINE
8
BLACK
6
CONTINUOUS
10
414.019
20
-132.984
11
414.02
21
-132.985
0
LINE
8
BLACK
6
CONTINUOUS
10
414.02
20
-132.985
11
414.021
21
-132.986
0
LINE
8
BLACK
6
CONTINUOUS
10
414.021
20
-132.986
11
414.021
21
-132.987
0
LINE
8
BLACK
6
CONTINUOUS
10
414.021
20
-132.987
11
414.022
21
-132.988
0
LINE
8
BLACK
6
CONTINUOUS
10
414.022
20
-132.988
11
414.023
21
-132.989
0
LINE
8
BLACK
6
CONTINUOUS
10
414.023
20
-132.989
11
414.023
21
-132.99
0
LINE
8
BLACK
6
CONTINUOUS
10
414.023
20
-132.99
11
414.024
21
-132.992
0
LINE
8
BLACK
6
CONTINUOUS
10
414.024
20
-132.992
11
414.024
21
-132.993
0
LINE
8
BLACK
6
CONTINUOUS
10
414.024
20
-132.993
11
414.024
21
-132.994
0
LINE
8
BLACK
6
CONTINUOUS
10
414.024
20
-132.994
11
414.025
21
-132.995
0
LINE
8
BLACK
6
CONTINUOUS
10
414.025
20
-132.995
11
414.025
21
-132.996
0
LINE
8
BLACK
6
CONTINUOUS
10
414.025
20
-132.996
11
414.025
21
-132.998
0
LINE
8
BLACK
6
CONTINUOUS
10
414.025
20
-132.998
11
414.025
21
-132.999
0
LINE
8
BLACK
6
CONTINUOUS
10
414.025
20
-132.999
11
414.025
21
-186.998
0
LINE
8
BLACK
6
CONTINUOUS
10
414.025
20
-186.998
11
414.025
21
-186.999
0
LINE
8
BLACK
6
CONTINUOUS
10
414.025
20
-186.999
11
414.025
21
-187.001
0
LINE
8
BLACK
6
CONTINUOUS
10
414.025
20
-187.001
11
414.025
21
-187.001
0
LINE
8
BLACK
6
CONTINUOUS
10
414.025
20
-187.001
11
414.025
21
-187.002
0
LINE
8
BLACK
6
CONTINUOUS
10
414.025
20
-187.002
11
414.025
21
-187.004
0
LINE
8
BLACK
6
CONTINUOUS
10
414.025
20
-187.004
11
414.025
21
-187.005
0
LINE
8
BLACK
6
CONTINUOUS
10
414.025
20
-187.005
11
414.025
21
-187.005
0
LINE
8
BLACK
6
CONTINUOUS
10
414.025
20
-187.005
11
414.024
21
-187.007
0
LINE
8
BLACK
6
CONTINUOUS
10
414.024
20
-187.007
11
414.023
21
-187.009
0
LINE
8
BLACK
6
CONTINUOUS
10
414.023
20
-187.009
11
414.023
21
-187.009
0
LINE
8
BLACK
6
CONTINUOUS
10
414.023
20
-187.009
11
414.023
21
-187.01
0
LINE
8
BLACK
6
CONTINUOUS
10
414.023
20
-187.01
11
414.022
21
-187.011
0
LINE
8
BLACK
6
CONTINUOUS
10
414.022
20
-187.011
11
414.021
21
-187.013
0
LINE
8
BLACK
6
CONTINUOUS
10
414.021
20
-187.013
11
414.021
21
-187.014
0
LINE
8
BLACK
6
CONTINUOUS
10
414.021
20
-187.014
11
414.021
21
-187.014
0
LINE
8
BLACK
6
CONTINUOUS
10
414.021
20
-187.014
11
414.02
21
-187.016
0
LINE
8
BLACK
6
CONTINUOUS
10
414.02
20
-187.016
11
414.018
21
-187.017
0
LINE
8
BLACK
6
CONTINUOUS
10
414.018
20
-187.017
11
414.018
21
-187.018
0
LINE
8
BLACK
6
CONTINUOUS
10
414.018
20
-187.018
11
414.018
21
-187.018
0
LINE
8
BLACK
6
CONTINUOUS
10
414.018
20
-187.018
11
414.016
21
-187.019
0
LINE
8
BLACK
6
CONTINUOUS
10
414.016
20
-187.019
11
414.014
21
-187.021
0
LINE
8
BLACK
6
CONTINUOUS
10
414.014
20
-187.021
11
414.014
21
-187.021
0
LINE
8
BLACK
6
CONTINUOUS
10
414.014
20
-187.021
11
414.014
21
-187.021
0
LINE
8
BLACK
6
CONTINUOUS
10
414.014
20
-187.021
11
414.012
21
-187.022
0
LINE
8
BLACK
6
CONTINUOUS
10
414.012
20
-187.022
11
414.011
21
-187.022
0
LINE
8
BLACK
6
CONTINUOUS
10
414.011
20
-187.022
11
414.011
21
-187.022
0
LINE
8
BLACK
6
CONTINUOUS
10
414.011
20
-187.022
11
414.01
21
-187.023
0
LINE
8
BLACK
6
CONTINUOUS
10
414.01
20
-187.023
11
414.009
21
-187.023
0
LINE
8
BLACK
6
CONTINUOUS
10
414.009
20
-187.023
11
369.011
21
-207.022
0
LINE
8
BLACK
6
CONTINUOUS
10
369.011
20
-207.022
11
369.01
21
-207.023
0
LINE
8
BLACK
6
CONTINUOUS
10
369.01
20
-207.023
11
369.007
21
-207.024
0
LINE
8
BLACK
6
CONTINUOUS
10
369.007
20
-207.024
11
369.006
21
-207.025
0
LINE
8
BLACK
6
CONTINUOUS
10
369.006
20
-207.025
11
369.004
21
-207.025
0
LINE
8
BLACK
6
CONTINUOUS
10
369.004
20
-207.025
11
315.008
21
-219.024
0
LINE
8
BLACK
6
CONTINUOUS
10
315.008
20
-219.024
11
315.007
21
-219.024
0
LINE
8
BLACK
6
CONTINUOUS
10
315.007
20
-219.024
11
315.005
21
-219.024
0
LINE
8
BLACK
6
CONTINUOUS
10
315.005
20
-219.024
11
315.004
21
-219.025
0
LINE
8
BLACK
6
CONTINUOUS
10
315.004
20
-219.025
11
315.004
21
-219.025
0
LINE
8
BLACK
6
CONTINUOUS
10
315.004
20
-219.025
11
315.002
21
-219.025
0
LINE
8
BLACK
6
CONTINUOUS
10
315.002
20
-219.025
11
315.001
21
-219.025
0
LINE
8
BLACK
6
CONTINUOUS
10
315.001
20
-219.025
11
315.001
21
-219.025
0
LINE
8
BLACK
6
CONTINUOUS
10
315.001
20
-219.025
11
314.999
21
-219.025
0
LINE
8
BLACK
6
CONTINUOUS
10
314.999
20
-219.025
11
314.997
21
-219.025
0
LINE
8
BLACK
6
CONTINUOUS
10
314.997
20
-219.025
11
314.997
21
-219.025
0
LINE
8
BLACK
6
CONTINUOUS
10
314.997
20
-219.025
11
314.996
21
-219.025
0
LINE
8
BLACK
6
CONTINUOUS
10
314.996
20
-219.025
11
314.994
21
-219.024
0
LINE
8
BLACK
6
CONTINUOUS
10
314.994
20
-219.024
11
314.993
21
-219.024
0
LINE
8
BLACK
6
CONTINUOUS
10
314.993
20
-219.024
11
314.992
21
-219.024
0
LINE
8
BLACK
6
CONTINUOUS
10
314.992
20
-219.024
11
314.991
21
-219.023
0
LINE
8
BLACK
6
CONTINUOUS
10
314.991
20
-219.023
11
314.99
21
-219.023
0
LINE
8
BLACK
6
CONTINUOUS
10
314.99
20
-219.023
11
314.988
21
-219.022
0
LINE
8
BLACK
6
CONTINUOUS
10
314.988
20
-219.022
11
314.987
21
-219.022
0
LINE
8
BLACK
6
CONTINUOUS
10
314.987
20
-219.022
11
314.987
21
-219.021
0
LINE
8
BLACK
6
CONTINUOUS
10
314.987
20
-219.021
11
314.985
21
-219.02
0
LINE
8
BLACK
6
CONTINUOUS
10
314.985
20
-219.02
11
314.984
21
-219.019
0
LINE
8
BLACK
6
CONTINUOUS
10
314.984
20
-219.019
11
314.983
21
-219.019
0
LINE
8
BLACK
6
CONTINUOUS
10
314.983
20
-219.019
11
314.983
21
-219.018
0
LINE
8
BLACK
6
CONTINUOUS
10
314.983
20
-219.018
11
314.982
21
-219.017
0
LINE
8
BLACK
6
CONTINUOUS
10
314.982
20
-219.017
11
314.981
21
-219.016
0
LINE
8
BLACK
6
CONTINUOUS
10
314.981
20
-219.016
11
314.98
21
-219.015
0
LINE
8
BLACK
6
CONTINUOUS
10
314.98
20
-219.015
11
314.979
21
-219.014
0
LINE
8
BLACK
6
CONTINUOUS
10
314.979
20
-219.014
11
314.979
21
-219.013
0
LINE
8
BLACK
6
CONTINUOUS
10
314.979
20
-219.013
11
314.978
21
-219.012
0
LINE
8
BLACK
6
CONTINUOUS
10
314.978
20
-219.012
11
314.977
21
-219.011
0
LINE
8
BLACK
6
CONTINUOUS
10
314.977
20
-219.011
11
314.977
21
-219.01
0
LINE
8
BLACK
6
CONTINUOUS
10
314.977
20
-219.01
11
314.977
21
-219.009
0
LINE
8
BLACK
6
CONTINUOUS
10
314.977
20
-219.009
11
314.976
21
-219.008
0
LINE
8
BLACK
6
CONTINUOUS
10
314.976
20
-219.008
11
314.976
21
-219.007
0
LINE
8
BLACK
6
CONTINUOUS
10
314.976
20
-219.007
11
314.975
21
-219.005
0
LINE
8
BLACK
6
CONTINUOUS
10
314.975
20
-219.005
11
314.975
21
-219.005
0
LINE
8
BLACK
6
CONTINUOUS
10
314.975
20
-219.005
11
308.977
21
-199.009
0
LINE
8
BLACK
6
CONTINUOUS
10
308.977
20
-199.009
11
308.976
21
-199.008
0
LINE
8
BLACK
6
CONTINUOUS
10
308.976
20
-199.008
11
308.976
21
-199.006
0
LINE
8
BLACK
6
CONTINUOUS
10
308.976
20
-199.006
11
308.976
21
-199.006
0
LINE
8
BLACK
6
CONTINUOUS
10
308.976
20
-199.006
11
308.976
21
-199.005
0
LINE
8
BLACK
6
CONTINUOUS
10
308.976
20
-199.005
11
308.975
21
-199.005
0
LINE
8
BLACK
6
CONTINUOUS
10
308.975
20
-199.005
11
308.975
21
-199.004
0
LINE
8
BLACK
6
CONTINUOUS
10
308.975
20
-199.004
11
308.975
21
-199.002
0
LINE
8
BLACK
6
CONTINUOUS
10
308.975
20
-199.002
11
308.975
21
-199.002
0
LINE
8
BLACK
6
CONTINUOUS
10
308.975
20
-199.002
11
304.975
21
-169.005
0
LINE
8
BLACK
6
CONTINUOUS
10
304.975
20
-169.005
11
304.975
21
-169.005
0
LINE
8
BLACK
6
CONTINUOUS
10
304.975
20
-169.005
11
304.975
21
-169.003
0
LINE
8
BLACK
6
CONTINUOUS
10
304.975
20
-169.003
11
304.975
21
-169.002
0
LINE
8
BLACK
6
CONTINUOUS
10
304.975
20
-169.002
11
304.975
21
-169.002
0
LINE
8
BLACK
6
CONTINUOUS
10
304.975
20
-169.002
11
304.975
21
-169.001
0
LINE
8
BLACK
6
CONTINUOUS
10
304.975
20
-169.001
11
304.975
21
-169
0
LINE
8
BLACK
6
CONTINUOUS
10
304.975
20
-169
11
304.975
21
-168.998
0
LINE
8
BLACK
6
CONTINUOUS
10
304.975
20
-168.998
11
304.975
21
-168.998
0
LINE
8
BLACK
6
CONTINUOUS
10
304.975
20
-168.998
11
304.975
21
-163.025
0
LINE
8
BLACK
6
CONTINUOUS
10
304.975
20
-163.025
11
304.025
21
-163.025
0
LINE
8
BLACK
6
CONTINUOUS
10
304.025
20
-163.025
11
304.025
21
-168.998
0
LINE
8
BLACK
6
CONTINUOUS
10
304.025
20
-168.998
11
304.025
21
-168.999
0
LINE
8
BLACK
6
CONTINUOUS
10
304.025
20
-168.999
11
304.025
21
-169.001
0
LINE
8
BLACK
6
CONTINUOUS
10
304.025
20
-169.001
11
304.025
21
-169.001
0
LINE
8
BLACK
6
CONTINUOUS
10
304.025
20
-169.001
11
304.025
21
-169.002
0
LINE
8
BLACK
6
CONTINUOUS
10
304.025
20
-169.002
11
304.025
21
-169.003
0
LINE
8
BLACK
6
CONTINUOUS
10
304.025
20
-169.003
11
304.025
21
-169.003
0
LINE
8
BLACK
6
CONTINUOUS
10
304.025
20
-169.003
11
304.025
21
-169.005
0
LINE
8
BLACK
6
CONTINUOUS
10
304.025
20
-169.005
11
304.024
21
-169.006
0
LINE
8
BLACK
6
CONTINUOUS
10
304.024
20
-169.006
11
298.025
21
-206.004
0
LINE
8
BLACK
6
CONTINUOUS
10
298.025
20
-206.004
11
298.024
21
-206.006
0
LINE
8
BLACK
6
CONTINUOUS
10
298.024
20
-206.006
11
298.024
21
-206.008
0
LINE
8
BLACK
6
CONTINUOUS
10
298.024
20
-206.008
11
298.024
21
-206.009
0
LINE
8
BLACK
6
CONTINUOUS
10
298.024
20
-206.009
11
298.023
21
-206.01
0
LINE
8
BLACK
6
CONTINUOUS
10
298.023
20
-206.01
11
298.023
21
-206.011
0
LINE
8
BLACK
6
CONTINUOUS
10
298.023
20
-206.011
11
298.022
21
-206.012
0
LINE
8
BLACK
6
CONTINUOUS
10
298.022
20
-206.012
11
298.021
21
-206.013
0
LINE
8
BLACK
6
CONTINUOUS
10
298.021
20
-206.013
11
298.021
21
-206.014
0
LINE
8
BLACK
6
CONTINUOUS
10
298.021
20
-206.014
11
298.02
21
-206.015
0
LINE
8
BLACK
6
CONTINUOUS
10
298.02
20
-206.015
11
298.019
21
-206.016
0
LINE
8
BLACK
6
CONTINUOUS
10
298.019
20
-206.016
11
298.018
21
-206.017
0
LINE
8
BLACK
6
CONTINUOUS
10
298.018
20
-206.017
11
298.018
21
-206.018
0
LINE
8
BLACK
6
CONTINUOUS
10
298.018
20
-206.018
11
298.017
21
-206.019
0
LINE
8
BLACK
6
CONTINUOUS
10
298.017
20
-206.019
11
298.016
21
-206.02
0
LINE
8
BLACK
6
CONTINUOUS
10
298.016
20
-206.02
11
298.015
21
-206.02
0
LINE
8
BLACK
6
CONTINUOUS
10
298.015
20
-206.02
11
298.013
21
-206.021
0
LINE
8
BLACK
6
CONTINUOUS
10
298.013
20
-206.021
11
276.014
21
-219.021
0
LINE
8
BLACK
6
CONTINUOUS
10
276.014
20
-219.021
11
276.014
21
-219.021
0
LINE
8
BLACK
6
CONTINUOUS
10
276.014
20
-219.021
11
276.012
21
-219.022
0
LINE
8
BLACK
6
CONTINUOUS
10
276.012
20
-219.022
11
276.012
21
-219.022
0
LINE
8
BLACK
6
CONTINUOUS
10
276.012
20
-219.022
11
276.011
21
-219.022
0
LINE
8
BLACK
6
CONTINUOUS
10
276.011
20
-219.022
11
276.009
21
-219.023
0
LINE
8
BLACK
6
CONTINUOUS
10
276.009
20
-219.023
11
276.009
21
-219.024
0
LINE
8
BLACK
6
CONTINUOUS
10
276.009
20
-219.024
11
276.008
21
-219.024
0
LINE
8
BLACK
6
CONTINUOUS
10
276.008
20
-219.024
11
276.006
21
-219.024
0
LINE
8
BLACK
6
CONTINUOUS
10
276.006
20
-219.024
11
276.004
21
-219.025
0
LINE
8
BLACK
6
CONTINUOUS
10
276.004
20
-219.025
11
276.004
21
-219.025
0
LINE
8
BLACK
6
CONTINUOUS
10
276.004
20
-219.025
11
276.004
21
-219.025
0
LINE
8
BLACK
6
CONTINUOUS
10
276.004
20
-219.025
11
276.002
21
-219.025
0
LINE
8
BLACK
6
CONTINUOUS
10
276.002
20
-219.025
11
276
21
-219.025
0
LINE
8
BLACK
6
CONTINUOUS
10
276
20
-219.025
11
275.999
21
-219.025
0
LINE
8
BLACK
6
CONTINUOUS
10
275.999
20
-219.025
11
275.999
21
-219.025
0
LINE
8
BLACK
6
CONTINUOUS
10
275.999
20
-219.025
11
275.997
21
-219.025
0
LINE
8
BLACK
6
CONTINUOUS
10
275.997
20
-219.025
11
275.996
21
-219.025
0
LINE
8
BLACK
6
CONTINUOUS
10
275.996
20
-219.025
11
275.995
21
-219.025
0
LINE
8
BLACK
6
CONTINUOUS
10
275.995
20
-219.025
11
275.994
21
-219.024
0
LINE
8
BLACK
6
CONTINUOUS
10
275.994
20
-219.024
11
275.993
21
-219.024
0
LINE
8
BLACK
6
CONTINUOUS
10
275.993
20
-219.024
11
220.996
21
-207.025
0
LINE
8
BLACK
6
CONTINUOUS
10
220.996
20
-207.025
11
220.995
21
-207.025
0
LINE
8
BLACK
6
CONTINUOUS
10
220.995
20
-207.025
11
220.994
21
-207.024
0
LINE
8
BLACK
6
CONTINUOUS
10
220.994
20
-207.024
11
220.993
21
-207.024
0
LINE
8
BLACK
6
CONTINUOUS
10
220.993
20
-207.024
11
220.993
21
-207.024
0
LINE
8
BLACK
6
CONTINUOUS
10
220.993
20
-207.024
11
220.992
21
-207.024
0
LINE
8
BLACK
6
CONTINUOUS
10
220.992
20
-207.024
11
220.992
21
-207.024
0
LINE
8
BLACK
6
CONTINUOUS
10
220.992
20
-207.024
11
220.99
21
-207.023
0
LINE
8
BLACK
6
CONTINUOUS
10
220.99
20
-207.023
11
220.989
21
-207.023
0
LINE
8
BLACK
6
CONTINUOUS
10
220.989
20
-207.023
11
172.992
21
-188.024
0
LINE
8
BLACK
6
CONTINUOUS
10
172.992
20
-188.024
11
172.99
21
-188.023
0
LINE
8
BLACK
6
CONTINUOUS
10
172.99
20
-188.023
11
172.988
21
-188.022
0
LINE
8
BLACK
6
CONTINUOUS
10
172.988
20
-188.022
11
172.986
21
-188.021
0
LINE
8
BLACK
6
CONTINUOUS
10
172.986
20
-188.021
11
172.986
21
-188.021
0
LINE
8
BLACK
6
CONTINUOUS
10
172.986
20
-188.021
11
172.986
21
-188.021
0
LINE
8
BLACK
6
CONTINUOUS
10
172.986
20
-188.021
11
172.984
21
-188.019
0
LINE
8
BLACK
6
CONTINUOUS
10
172.984
20
-188.019
11
172.983
21
-188.018
0
LINE
8
BLACK
6
CONTINUOUS
10
172.983
20
-188.018
11
172.982
21
-188.018
0
LINE
8
BLACK
6
CONTINUOUS
10
172.982
20
-188.018
11
172.982
21
-188.018
0
LINE
8
BLACK
6
CONTINUOUS
10
172.982
20
-188.018
11
172.981
21
-188.016
0
LINE
8
BLACK
6
CONTINUOUS
10
172.981
20
-188.016
11
172.979
21
-188.014
0
LINE
8
BLACK
6
CONTINUOUS
10
172.979
20
-188.014
11
172.979
21
-188.014
0
LINE
8
BLACK
6
CONTINUOUS
10
172.979
20
-188.014
11
172.979
21
-188.014
0
LINE
8
BLACK
6
CONTINUOUS
10
172.979
20
-188.014
11
172.978
21
-188.012
0
LINE
8
BLACK
6
CONTINUOUS
10
172.978
20
-188.012
11
172.977
21
-188.01
0
LINE
8
BLACK
6
CONTINUOUS
10
172.977
20
-188.01
11
172.977
21
-188.01
0
LINE
8
BLACK
6
CONTINUOUS
10
172.977
20
-188.01
11
172.977
21
-188.01
0
LINE
8
BLACK
6
CONTINUOUS
10
172.977
20
-188.01
11
172.976
21
-188.007
0
LINE
8
BLACK
6
CONTINUOUS
10
172.976
20
-188.007
11
172.975
21
-188.005
0
LINE
8
BLACK
6
CONTINUOUS
10
172.975
20
-188.005
11
172.975
21
-188.005
0
LINE
8
BLACK
6
CONTINUOUS
10
172.975
20
-188.005
11
172.975
21
-188.005
0
LINE
8
BLACK
6
CONTINUOUS
10
172.975
20
-188.005
11
172.975
21
-188.003
0
LINE
8
BLACK
6
CONTINUOUS
10
172.975
20
-188.003
11
172.975
21
-188
0
LINE
8
BLACK
6
CONTINUOUS
10
172.975
20
-188
11
172.975
21
-187.999
0
LINE
8
BLACK
6
CONTINUOUS
10
172.975
20
-187.999
11
172.975
21
-134.002
0
LINE
8
BLACK
6
CONTINUOUS
10
172.975
20
-134.002
11
172.975
21
-134.002
0
LINE
8
BLACK
6
CONTINUOUS
10
172.975
20
-134.002
11
172.975
21
-134
0
LINE
8
BLACK
6
CONTINUOUS
10
172.975
20
-134
11
172.975
21
-133.999
0
LINE
8
BLACK
6
CONTINUOUS
10
172.975
20
-133.999
11
172.975
21
-133.999
0
LINE
8
BLACK
6
CONTINUOUS
10
172.975
20
-133.999
11
172.975
21
-133.997
0
LINE
8
BLACK
6
CONTINUOUS
10
172.975
20
-133.997
11
172.975
21
-133.996
0
LINE
8
BLACK
6
CONTINUOUS
10
172.975
20
-133.996
11
172.975
21
-133.995
0
LINE
8
BLACK
6
CONTINUOUS
10
172.975
20
-133.995
11
172.976
21
-133.994
0
LINE
8
BLACK
6
CONTINUOUS
10
172.976
20
-133.994
11
172.976
21
-133.993
0
LINE
8
BLACK
6
CONTINUOUS
10
172.976
20
-133.993
11
172.976
21
-133.992
0
LINE
8
BLACK
6
CONTINUOUS
10
172.976
20
-133.992
11
172.977
21
-133.99
0
LINE
8
BLACK
6
CONTINUOUS
10
172.977
20
-133.99
11
172.977
21
-133.989
0
LINE
8
BLACK
6
CONTINUOUS
10
172.977
20
-133.989
11
172.978
21
-133.988
0
LINE
8
BLACK
6
CONTINUOUS
10
172.978
20
-133.988
11
172.979
21
-133.987
0
LINE
8
BLACK
6
CONTINUOUS
10
172.979
20
-133.987
11
172.979
21
-133.986
0
LINE
8
BLACK
6
CONTINUOUS
10
172.979
20
-133.986
11
172.98
21
-133.985
0
LINE
8
BLACK
6
CONTINUOUS
10
172.98
20
-133.985
11
172.981
21
-133.984
0
LINE
8
BLACK
6
CONTINUOUS
10
172.981
20
-133.984
11
172.981
21
-133.983
0
LINE
8
BLACK
6
CONTINUOUS
10
172.981
20
-133.983
11
172.982
21
-133.982
0
LINE
8
BLACK
6
CONTINUOUS
10
172.982
20
-133.982
11
172.983
21
-133.981
0
LINE
8
BLACK
6
CONTINUOUS
10
172.983
20
-133.981
11
172.984
21
-133.98
0
LINE
8
BLACK
6
CONTINUOUS
10
172.984
20
-133.98
11
172.985
21
-133.98
0
LINE
8
BLACK
6
CONTINUOUS
10
172.985
20
-133.98
11
172.986
21
-133.979
0
LINE
8
BLACK
6
CONTINUOUS
10
172.986
20
-133.979
11
172.987
21
-133.978
0
LINE
8
BLACK
6
CONTINUOUS
10
172.987
20
-133.978
11
172.988
21
-133.978
0
LINE
8
BLACK
6
CONTINUOUS
10
172.988
20
-133.978
11
172.989
21
-133.977
0
LINE
8
BLACK
6
CONTINUOUS
10
172.989
20
-133.977
11
172.99
21
-133.977
0
LINE
8
BLACK
6
CONTINUOUS
10
172.99
20
-133.977
11
172.992
21
-133.976
0
LINE
8
BLACK
6
CONTINUOUS
10
172.992
20
-133.976
11
172.992
21
-133.976
0
LINE
8
BLACK
6
CONTINUOUS
10
172.992
20
-133.976
11
172.993
21
-133.976
0
LINE
8
BLACK
6
CONTINUOUS
10
172.993
20
-133.976
11
172.995
21
-133.975
0
LINE
8
BLACK
6
CONTINUOUS
10
172.995
20
-133.975
11
172.995
21
-133.975
0
LINE
8
BLACK
6
CONTINUOUS
10
172.995
20
-133.975
11
209.993
21
-122.976
0
LINE
8
BLACK
6
CONTINUOUS
10
209.993
20
-122.976
11
209.995
21
-122.975
0
LINE
8
BLACK
6
CONTINUOUS
10
209.995
20
-122.975
11
209.996
21
-122.975
0
LINE
8
BLACK
6
CONTINUOUS
10
209.996
20
-122.975
11
209.998
21
-122.975
0
LINE
8
BLACK
6
CONTINUOUS
10
209.998
20
-122.975
11
210
21
-122.975
0
LINE
8
BLACK
6
CONTINUOUS
10
210
20
-122.975
11
229.999
21
-122.975
0
LINE
8
BLACK
6
CONTINUOUS
10
229.999
20
-122.975
11
230
21
-122.975
0
LINE
8
BLACK
6
CONTINUOUS
10
230
20
-122.975
11
230.001
21
-122.975
0
LINE
8
BLACK
6
CONTINUOUS
10
230.001
20
-122.975
11
230.001
21
-122.975
0
LINE
8
BLACK
6
CONTINUOUS
10
230.001
20
-122.975
11
230.002
21
-122.975
0
LINE
8
BLACK
6
CONTINUOUS
10
230.002
20
-122.975
11
303.999
21
-126.975
0
LINE
8
BLACK
6
CONTINUOUS
10
303.999
20
-126.975
11
304
21
-126.975
0
LINE
8
BLACK
6
CONTINUOUS
10
304
20
-126.975
11
304.002
21
-126.975
0
LINE
8
BLACK
6
CONTINUOUS
10
304.002
20
-126.975
11
304.003
21
-126.975
0
LINE
8
BLACK
6
CONTINUOUS
10
304.003
20
-126.975
11
304.003
21
-126.975
0
LINE
8
BLACK
6
CONTINUOUS
10
304.003
20
-126.975
11
304.005
21
-126.975
0
LINE
8
BLACK
6
CONTINUOUS
10
304.005
20
-126.975
11
304.006
21
-126.976
0
LINE
8
BLACK
6
CONTINUOUS
10
304.006
20
-126.976
11
304.006
21
-126.976
0
LINE
8
BLACK
6
CONTINUOUS
10
304.006
20
-126.976
11
304.008
21
-126.976
0
LINE
8
BLACK
6
CONTINUOUS
10
304.008
20
-126.976
11
304.01
21
-126.977
0
LINE
8
BLACK
6
CONTINUOUS
10
304.01
20
-126.977
11
304.01
21
-126.977
0
LINE
8
BLACK
6
CONTINUOUS
10
304.01
20
-126.977
11
304.011
21
-126.977
0
LINE
8
BLACK
6
CONTINUOUS
10
304.011
20
-126.977
11
304.012
21
-126.978
0
LINE
8
BLACK
6
CONTINUOUS
10
304.012
20
-126.978
11
304.014
21
-126.979
0
LINE
8
BLACK
6
CONTINUOUS
10
304.014
20
-126.979
11
304.014
21
-126.98
0
LINE
8
BLACK
6
CONTINUOUS
10
304.014
20
-126.98
11
304.015
21
-126.98
0
LINE
8
BLACK
6
CONTINUOUS
10
304.015
20
-126.98
11
304.016
21
-126.981
0
LINE
8
BLACK
6
CONTINUOUS
10
304.016
20
-126.981
11
304.018
21
-126.982
0
LINE
8
BLACK
6
CONTINUOUS
10
304.018
20
-126.982
11
304.018
21
-126.983
0
LINE
8
BLACK
6
CONTINUOUS
10
304.018
20
-126.983
11
304.019
21
-126.983
0
LINE
8
BLACK
6
CONTINUOUS
10
304.019
20
-126.983
11
304.02
21
-126.985
0
LINE
8
BLACK
6
CONTINUOUS
10
304.02
20
-126.985
11
304.021
21
-126.986
0
LINE
8
BLACK
6
CONTINUOUS
10
304.021
20
-126.986
11
304.021
21
-126.987
0
LINE
8
BLACK
6
CONTINUOUS
10
304.021
20
-126.987
11
304.022
21
-126.987
0
LINE
8
BLACK
6
CONTINUOUS
10
304.022
20
-126.987
11
304.022
21
-126.989
0
LINE
8
BLACK
6
CONTINUOUS
10
304.022
20
-126.989
11
304.023
21
-126.99
0
LINE
8
BLACK
6
CONTINUOUS
10
304.023
20
-126.99
11
304.023
21
-126.991
0
LINE
8
BLACK
6
CONTINUOUS
10
304.023
20
-126.991
11
304.024
21
-126.992
0
LINE
8
BLACK
6
CONTINUOUS
10
304.024
20
-126.992
11
304.024
21
-126.993
0
LINE
8
BLACK
6
CONTINUOUS
10
304.024
20
-126.993
11
304.025
21
-126.995
0
LINE
8
BLACK
6
CONTINUOUS
10
304.025
20
-126.995
11
304.025
21
-126.996
0
LINE
8
BLACK
6
CONTINUOUS
10
304.025
20
-126.996
11
304.025
21
-126.996
0
LINE
8
BLACK
6
CONTINUOUS
10
304.025
20
-126.996
11
304.025
21
-126.998
0
LINE
8
BLACK
6
CONTINUOUS
10
304.025
20
-126.998
11
304.025
21
-126.999
0
LINE
8
BLACK
6
CONTINUOUS
10
304.025
20
-126.999
11
304.025
21
-126.999
0
LINE
8
BLACK
6
CONTINUOUS
10
304.025
20
-126.999
11
304.025
21
-127.001
0
LINE
8
BLACK
6
CONTINUOUS
10
304.025
20
-127.001
11
304.025
21
-127.002
0
LINE
8
BLACK
6
CONTINUOUS
10
304.025
20
-127.002
11
304.025
21
-133.975
0
LINE
8
BLACK
6
CONTINUOUS
10
304.025
20
-133.975
11
304.975
21
-133.975
0
LINE
8
BLACK
6
CONTINUOUS
10
304.975
20
-133.975
11
304.975
21
-127.002
0
LINE
8
BLACK
6
CONTINUOUS
10
304.975
20
-127.002
11
304.975
21
-127.002
0
LINE
8
BLACK
6
CONTINUOUS
10
304.975
20
-127.002
11
304.975
21
-127
0
LINE
8
BLACK
6
CONTINUOUS
10
304.975
20
-127
11
304.975
21
-126.999
0
LINE
8
BLACK
6
CONTINUOUS
10
304.975
20
-126.999
11
304.975
21
-126.999
0
LINE
8
BLACK
6
CONTINUOUS
10
304.975
20
-126.999
11
304.975
21
-126.997
0
LINE
8
BLACK
6
CONTINUOUS
10
304.975
20
-126.997
11
304.975
21
-126.996
0
LINE
8
BLACK
6
CONTINUOUS
10
304.975
20
-126.996
11
304.975
21
-126.995
0
LINE
8
BLACK
6
CONTINUOUS
10
304.975
20
-126.995
11
304.976
21
-126.994
0
LINE
8
BLACK
6
CONTINUOUS
10
304.976
20
-126.994
11
304.976
21
-126.993
0
LINE
8
BLACK
6
CONTINUOUS
10
304.976
20
-126.993
11
304.976
21
-126.992
0
LINE
8
BLACK
6
CONTINUOUS
10
304.976
20
-126.992
11
304.977
21
-126.99
0
LINE
8
BLACK
6
CONTINUOUS
10
304.977
20
-126.99
11
304.977
21
-126.989
0
LINE
8
BLACK
6
CONTINUOUS
10
304.977
20
-126.989
11
304.978
21
-126.988
0
LINE
8
BLACK
6
CONTINUOUS
10
304.978
20
-126.988
11
304.979
21
-126.987
0
LINE
8
BLACK
6
CONTINUOUS
10
304.979
20
-126.987
11
304.979
21
-126.986
0
LINE
8
BLACK
6
CONTINUOUS
10
304.979
20
-126.986
11
304.98
21
-126.985
0
LINE
8
BLACK
6
CONTINUOUS
10
304.98
20
-126.985
11
304.981
21
-126.984
0
LINE
8
BLACK
6
CONTINUOUS
10
304.981
20
-126.984
11
304.981
21
-126.983
0
LINE
8
BLACK
6
CONTINUOUS
10
304.981
20
-126.983
11
304.982
21
-126.982
0
LINE
8
BLACK
6
CONTINUOUS
10
304.982
20
-126.982
11
304.983
21
-126.981
0
LINE
8
BLACK
6
CONTINUOUS
10
304.983
20
-126.981
11
304.984
21
-126.981
0
LINE
8
BLACK
6
CONTINUOUS
10
304.984
20
-126.981
11
304.985
21
-126.98
0
LINE
8
BLACK
6
CONTINUOUS
10
304.985
20
-126.98
11
304.986
21
-126.979
0
LINE
8
BLACK
6
CONTINUOUS
10
304.986
20
-126.979
11
304.987
21
-126.979
0
LINE
8
BLACK
6
CONTINUOUS
10
304.987
20
-126.979
11
304.988
21
-126.978
0
LINE
8
BLACK
6
CONTINUOUS
10
304.988
20
-126.978
11
304.989
21
-126.977
0
LINE
8
BLACK
6
CONTINUOUS
10
304.989
20
-126.977
11
304.99
21
-126.977
0
LINE
8
BLACK
6
CONTINUOUS
10
304.99
20
-126.977
11
304.992
21
-126.976
0
LINE
8
BLACK
6
CONTINUOUS
10
304.992
20
-126.976
11
304.993
21
-126.976
0
LINE
8
BLACK
6
CONTINUOUS
10
304.993
20
-126.976
11
304.994
21
-126.976
0
LINE
8
BLACK
6
CONTINUOUS
10
304.994
20
-126.976
11
304.995
21
-126.975
0
LINE
8
BLACK
6
CONTINUOUS
10
304.995
20
-126.975
11
304.996
21
-126.975
0
LINE
8
BLACK
6
CONTINUOUS
10
304.996
20
-126.975
11
304.996
21
-126.975
0
LINE
8
BLACK
6
CONTINUOUS
10
304.996
20
-126.975
11
304.998
21
-126.975
0
LINE
8
BLACK
6
CONTINUOUS
10
304.998
20
-126.975
11
305
21
-126.975
0
LINE
8
BLACK
6
CONTINUOUS
10
305
20
-126.975
11
305
21
-126.975
0
LINE
8
BLACK
6
CONTINUOUS
10
305
20
-126.975
11
357.998
21
-121.975
0
LINE
8
BLACK
6
CONTINUOUS
10
357.998
20
-121.975
11
357.999
21
-121.975
0
LINE
8
BLACK
6
CONTINUOUS
10
357.999
20
-121.975
11
357.999
21
-121.975
0
LINE
8
BLACK
6
CONTINUOUS
10
357.999
20
-121.975
11
357.999
21
-121.975
0
LINE
8
BLACK
6
CONTINUOUS
10
357.999
20
-121.975
11
358
21
-121.975
0
LINE
8
BLACK
6
CONTINUOUS
10
358
20
-121.975
11
377.998
21
-121.975
0
LINE
8
BLACK
6
CONTINUOUS
10
377.998
20
-121.975
11
377.998
21
-121.975
0
LINE
8
BLACK
6
CONTINUOUS
10
377.998
20
-121.975
11
377.999
21
-121.975
0
LINE
8
BLACK
6
CONTINUOUS
10
358.001
20
-122.025
11
305.025
21
-127.023
0
LINE
8
BLACK
6
CONTINUOUS
10
305.025
20
-127.023
11
305.025
21
-133.999
0
LINE
8
BLACK
6
CONTINUOUS
10
305.025
20
-133.999
11
305.025
21
-134
0
LINE
8
BLACK
6
CONTINUOUS
10
305.025
20
-134
11
305.025
21
-134.001
0
LINE
8
BLACK
6
CONTINUOUS
10
305.025
20
-134.001
11
305.025
21
-134.001
0
LINE
8
BLACK
6
CONTINUOUS
10
305.025
20
-134.001
11
305.025
21
-134.005
0
LINE
8
BLACK
6
CONTINUOUS
10
305.025
20
-134.005
11
305.023
21
-134.01
0
LINE
8
BLACK
6
CONTINUOUS
10
305.023
20
-134.01
11
305.021
21
-134.014
0
LINE
8
BLACK
6
CONTINUOUS
10
305.021
20
-134.014
11
305.018
21
-134.018
0
LINE
8
BLACK
6
CONTINUOUS
10
305.018
20
-134.018
11
305.014
21
-134.021
0
LINE
8
BLACK
6
CONTINUOUS
10
305.014
20
-134.021
11
305.01
21
-134.023
0
LINE
8
BLACK
6
CONTINUOUS
10
305.01
20
-134.023
11
305.005
21
-134.025
0
LINE
8
BLACK
6
CONTINUOUS
10
305.005
20
-134.025
11
305
21
-134.025
0
LINE
8
BLACK
6
CONTINUOUS
10
305
20
-134.025
11
304.999
21
-134.025
0
LINE
8
BLACK
6
CONTINUOUS
10
304.999
20
-134.025
11
304.001
21
-134.025
0
LINE
8
BLACK
6
CONTINUOUS
10
304.001
20
-134.025
11
304
21
-134.025
0
LINE
8
BLACK
6
CONTINUOUS
10
304
20
-134.025
11
303.995
21
-134.025
0
LINE
8
BLACK
6
CONTINUOUS
10
303.995
20
-134.025
11
303.99
21
-134.023
0
LINE
8
BLACK
6
CONTINUOUS
10
303.99
20
-134.023
11
303.986
21
-134.021
0
LINE
8
BLACK
6
CONTINUOUS
10
303.986
20
-134.021
11
303.982
21
-134.018
0
LINE
8
BLACK
6
CONTINUOUS
10
303.982
20
-134.018
11
303.979
21
-134.014
0
LINE
8
BLACK
6
CONTINUOUS
10
303.979
20
-134.014
11
303.977
21
-134.01
0
LINE
8
BLACK
6
CONTINUOUS
10
303.977
20
-134.01
11
303.975
21
-134.005
0
LINE
8
BLACK
6
CONTINUOUS
10
303.975
20
-134.005
11
303.975
21
-134
0
LINE
8
BLACK
6
CONTINUOUS
10
303.975
20
-134
11
303.975
21
-133.999
0
LINE
8
BLACK
6
CONTINUOUS
10
303.975
20
-133.999
11
303.975
21
-127.024
0
LINE
8
BLACK
6
CONTINUOUS
10
303.975
20
-127.024
11
229.999
21
-123.025
0
LINE
8
BLACK
6
CONTINUOUS
10
229.999
20
-123.025
11
210.004
21
-123.025
0
LINE
8
BLACK
6
CONTINUOUS
10
210.004
20
-123.025
11
173.025
21
-134.019
0
LINE
8
BLACK
6
CONTINUOUS
10
173.025
20
-134.019
11
173.025
21
-187.983
0
LINE
8
BLACK
6
CONTINUOUS
10
173.025
20
-187.983
11
221.007
21
-206.976
0
LINE
8
BLACK
6
CONTINUOUS
10
221.007
20
-206.976
11
275.996
21
-218.973
0
LINE
8
BLACK
6
CONTINUOUS
10
275.996
20
-218.973
11
297.977
21
-205.984
0
LINE
8
BLACK
6
CONTINUOUS
10
297.977
20
-205.984
11
303.975
21
-168.998
0
LINE
8
BLACK
6
CONTINUOUS
10
303.975
20
-168.998
11
303.975
21
-163.001
0
LINE
8
BLACK
6
CONTINUOUS
10
303.975
20
-163.001
11
303.975
21
-163
0
LINE
8
BLACK
6
CONTINUOUS
10
303.975
20
-163
11
303.975
21
-162.995
0
LINE
8
BLACK
6
CONTINUOUS
10
303.975
20
-162.995
11
303.977
21
-162.99
0
LINE
8
BLACK
6
CONTINUOUS
10
303.977
20
-162.99
11
303.979
21
-162.986
0
LINE
8
BLACK
6
CONTINUOUS
10
303.979
20
-162.986
11
303.982
21
-162.982
0
LINE
8
BLACK
6
CONTINUOUS
10
303.982
20
-162.982
11
303.986
21
-162.979
0
LINE
8
BLACK
6
CONTINUOUS
10
303.986
20
-162.979
11
303.99
21
-162.977
0
LINE
8
BLACK
6
CONTINUOUS
10
303.99
20
-162.977
11
303.995
21
-162.975
0
LINE
8
BLACK
6
CONTINUOUS
10
303.995
20
-162.975
11
303.999
21
-162.975
0
LINE
8
BLACK
6
CONTINUOUS
10
303.999
20
-162.975
11
304
21
-162.975
0
LINE
8
BLACK
6
CONTINUOUS
10
304
20
-162.975
11
304.001
21
-162.975
0
LINE
8
BLACK
6
CONTINUOUS
10
304.001
20
-162.975
11
304.999
21
-162.975
0
LINE
8
BLACK
6
CONTINUOUS
10
304.999
20
-162.975
11
305
21
-162.975
0
LINE
8
BLACK
6
CONTINUOUS
10
305
20
-162.975
11
305.001
21
-162.975
0
LINE
8
BLACK
6
CONTINUOUS
10
305.001
20
-162.975
11
305.001
21
-162.975
0
LINE
8
BLACK
6
CONTINUOUS
10
305.001
20
-162.975
11
305.005
21
-162.975
0
LINE
8
BLACK
6
CONTINUOUS
10
305.005
20
-162.975
11
305.01
21
-162.977
0
LINE
8
BLACK
6
CONTINUOUS
10
305.01
20
-162.977
11
305.014
21
-162.979
0
LINE
8
BLACK
6
CONTINUOUS
10
305.014
20
-162.979
11
305.018
21
-162.982
0
LINE
8
BLACK
6
CONTINUOUS
10
305.018
20
-162.982
11
305.021
21
-162.986
0
LINE
8
BLACK
6
CONTINUOUS
10
305.021
20
-162.986
11
305.023
21
-162.99
0
LINE
8
BLACK
6
CONTINUOUS
10
305.023
20
-162.99
11
305.025
21
-162.995
0
LINE
8
BLACK
6
CONTINUOUS
10
305.025
20
-162.995
11
305.025
21
-163
0
LINE
8
BLACK
6
CONTINUOUS
10
305.025
20
-163
11
305.025
21
-163.001
0
LINE
8
BLACK
6
CONTINUOUS
10
305.025
20
-163.001
11
305.025
21
-168.998
0
LINE
8
BLACK
6
CONTINUOUS
10
305.025
20
-168.998
11
309.025
21
-198.995
0
LINE
8
BLACK
6
CONTINUOUS
10
309.025
20
-198.995
11
315.017
21
-218.971
0
LINE
8
BLACK
6
CONTINUOUS
10
315.017
20
-218.971
11
368.992
21
-206.976
0
LINE
8
BLACK
6
CONTINUOUS
10
368.992
20
-206.976
11
413.975
21
-186.984
0
LINE
8
BLACK
6
CONTINUOUS
10
413.975
20
-186.984
11
413.975
21
-133.019
0
LINE
8
BLACK
6
CONTINUOUS
10
413.975
20
-133.019
11
377.996
21
-122.025
0
LINE
8
BLACK
6
CONTINUOUS
10
377.996
20
-122.025
11
358.001
21
-122.025
0
LINE
8
BLACK
6
CONTINUOUS
10
305.001
20
-141.975
11
305.001
21
-141.975
0
LINE
8
BLACK
6
CONTINUOUS
10
305.001
20
-141.975
11
305.005
21
-141.975
0
LINE
8
BLACK
6
CONTINUOUS
10
305.005
20
-141.975
11
305.01
21
-141.977
0
LINE
8
BLACK
6
CONTINUOUS
10
305.01
20
-141.977
11
305.014
21
-141.979
0
LINE
8
BLACK
6
CONTINUOUS
10
305.014
20
-141.979
11
305.018
21
-141.982
0
LINE
8
BLACK
6
CONTINUOUS
10
305.018
20
-141.982
11
305.021
21
-141.986
0
LINE
8
BLACK
6
CONTINUOUS
10
305.021
20
-141.986
11
305.023
21
-141.99
0
LINE
8
BLACK
6
CONTINUOUS
10
305.023
20
-141.99
11
305.025
21
-141.995
0
LINE
8
BLACK
6
CONTINUOUS
10
305.025
20
-141.995
11
305.025
21
-142
0
LINE
8
BLACK
6
CONTINUOUS
10
305.025
20
-142
11
305.025
21
-142.001
0
LINE
8
BLACK
6
CONTINUOUS
10
305.025
20
-142.001
11
305.025
21
-154.999
0
LINE
8
BLACK
6
CONTINUOUS
10
305.025
20
-154.999
11
305.025
21
-155
0
LINE
8
BLACK
6
CONTINUOUS
10
305.025
20
-155
11
305.025
21
-155.001
0
LINE
8
BLACK
6
CONTINUOUS
10
305.025
20
-155.001
11
305.025
21
-155.005
0
LINE
8
BLACK
6
CONTINUOUS
10
305.025
20
-155.005
11
305.023
21
-155.01
0
LINE
8
BLACK
6
CONTINUOUS
10
305.023
20
-155.01
11
305.021
21
-155.014
0
LINE
8
BLACK
6
CONTINUOUS
10
305.021
20
-155.014
11
305.018
21
-155.018
0
LINE
8
BLACK
6
CONTINUOUS
10
305.018
20
-155.018
11
305.014
21
-155.021
0
LINE
8
BLACK
6
CONTINUOUS
10
305.014
20
-155.021
11
305.01
21
-155.023
0
LINE
8
BLACK
6
CONTINUOUS
10
305.01
20
-155.023
11
305.005
21
-155.025
0
LINE
8
BLACK
6
CONTINUOUS
10
305.005
20
-155.025
11
305
21
-155.025
0
LINE
8
BLACK
6
CONTINUOUS
10
305
20
-155.025
11
304.999
21
-155.025
0
LINE
8
BLACK
6
CONTINUOUS
10
304.999
20
-155.025
11
304.001
21
-155.025
0
LINE
8
BLACK
6
CONTINUOUS
10
304.001
20
-155.025
11
304
21
-155.025
0
LINE
8
BLACK
6
CONTINUOUS
10
304
20
-155.025
11
303.999
21
-155.025
0
LINE
8
BLACK
6
CONTINUOUS
10
303.999
20
-155.025
11
303.999
21
-155.025
0
LINE
8
BLACK
6
CONTINUOUS
10
303.999
20
-155.025
11
303.995
21
-155.025
0
LINE
8
BLACK
6
CONTINUOUS
10
303.995
20
-155.025
11
303.99
21
-155.023
0
LINE
8
BLACK
6
CONTINUOUS
10
303.99
20
-155.023
11
303.986
21
-155.021
0
LINE
8
BLACK
6
CONTINUOUS
10
303.986
20
-155.021
11
303.982
21
-155.018
0
LINE
8
BLACK
6
CONTINUOUS
10
303.982
20
-155.018
11
303.979
21
-155.014
0
LINE
8
BLACK
6
CONTINUOUS
10
303.979
20
-155.014
11
303.977
21
-155.01
0
LINE
8
BLACK
6
CONTINUOUS
10
303.977
20
-155.01
11
303.975
21
-155.005
0
LINE
8
BLACK
6
CONTINUOUS
10
303.975
20
-155.005
11
303.975
21
-155
0
LINE
8
BLACK
6
CONTINUOUS
10
303.975
20
-155
11
303.975
21
-154.999
0
LINE
8
BLACK
6
CONTINUOUS
10
303.975
20
-154.999
11
303.975
21
-142.001
0
LINE
8
BLACK
6
CONTINUOUS
10
303.975
20
-142.001
11
303.975
21
-142
0
LINE
8
BLACK
6
CONTINUOUS
10
303.975
20
-142
11
303.975
21
-141.995
0
LINE
8
BLACK
6
CONTINUOUS
10
303.975
20
-141.995
11
303.977
21
-141.99
0
LINE
8
BLACK
6
CONTINUOUS
10
303.977
20
-141.99
11
303.979
21
-141.986
0
LINE
8
BLACK
6
CONTINUOUS
10
303.979
20
-141.986
11
303.982
21
-141.982
0
LINE
8
BLACK
6
CONTINUOUS
10
303.982
20
-141.982
11
303.986
21
-141.979
0
LINE
8
BLACK
6
CONTINUOUS
10
303.986
20
-141.979
11
303.99
21
-141.977
0
LINE
8
BLACK
6
CONTINUOUS
10
303.99
20
-141.977
11
303.995
21
-141.975
0
LINE
8
BLACK
6
CONTINUOUS
10
303.995
20
-141.975
11
303.999
21
-141.975
0
LINE
8
BLACK
6
CONTINUOUS
10
303.999
20
-141.975
11
304
21
-141.975
0
LINE
8
BLACK
6
CONTINUOUS
10
304
20
-141.975
11
304.001
21
-141.975
0
LINE
8
BLACK
6
CONTINUOUS
10
304.001
20
-141.975
11
304.999
21
-141.975
0
LINE
8
BLACK
6
CONTINUOUS
10
304.999
20
-141.975
11
305
21
-141.975
0
LINE
8
BLACK
6
CONTINUOUS
10
305
20
-141.975
11
305.001
21
-141.975
0
LINE
8
BLACK
6
CONTINUOUS
10
304.025
20
-142.025
11
304.025
21
-154.975
0
LINE
8
BLACK
6
CONTINUOUS
10
304.025
20
-154.975
11
304.975
21
-154.975
0
LINE
8
BLACK
6
CONTINUOUS
10
304.975
20
-154.975
11
304.975
21
-142.025
0
LINE
8
BLACK
6
CONTINUOUS
10
304.975
20
-142.025
11
304.025
21
-142.025
  0
ENDSEC
  0
EOF
