0
SECTION
2
HEADER
9
$INSUNITS
70
4
9
$ACADVER
1
AC1014
9
$HANDSEED
5
FFFF
0
ENDSEC
0
SECTION
2
TABLES
0
TABLE
2
VPORT
5
8
100
AcDbSymbolTable
0
ENDTAB
0
TABLE
2
LTYPE
5
5
100
AcDbSymbolTable
0
LTYPE
5
14
100
AcDbSymbolTableRecord
100
AcDbLinetypeTableRecord
2
BYBLOCK
70
0
0
LTYPE
5
15
100
AcDbSymbolTableRecord
100
AcDbLinetypeTableRecord
2
BYLAYER
70
0
0
ENDTAB
0
TABLE
2
LAYER
5
2
100
AcDbSymbolTable
70
2
0
LAYER
5
50
100
AcDbSymbolTableRecord
100
AcDbLayerTableRecord
2
0
70
0
6
CONTINUOUS
0
ENDTAB
0
TABLE
2
STYLE
5
3
100
AcDbSymbolTable
70
1
0
STYLE
5
11
100
AcDbSymbolTableRecord
100
AcDbTextStyleTableRecord
2
STANDARD
70
0
0
ENDTAB
0
TABLE
2
VIEW
5
6
100
AcDbSymbolTable
70
0
0
ENDTAB
0
TABLE
2
UCS
5
7
100
AcDbSymbolTable
70
0
0
ENDTAB
0
TABLE
2
APPID
5
9
100
AcDbSymbolTable
70
2
0
APPID
5
12
100
AcDbSymbolTableRecord
100
AcDbRegAppTableRecord
2
ACAD
70
0
0
ENDTAB
0
TABLE
2
DIMSTYLE
5
A
100
AcDbSymbolTable
70
1
0
ENDTAB
0
TABLE
2
BLOCK_RECORD
5
1
100
AcDbSymbolTable
70
1
0
BLOCK_RECORD
5
1F
100
AcDbSymbolTableRecord
100
AcDbBlockTableRecord
2
*MODEL_SPACE
0
BLOCK_RECORD
5
1B
100
AcDbSymbolTableRecord
100
AcDbBlockTableRecord
2
*PAPER_SPACE
0
ENDTAB
0
ENDSEC
0
SECTION
2
BLOCKS
0
BLOCK
5
20
100
AcDbEntity
100
AcDbBlockBegin
2
*MODEL_SPACE
0
ENDBLK
5
21
100
AcDbEntity
100
AcDbBlockEnd
0
BLOCK
5
1C
100
AcDbEntity
100
AcDbBlockBegin
2
*PAPER_SPACE
0
ENDBLK
5
1D
100
AcDbEntity
100
AcDbBlockEnd
0
ENDSEC
0
SECTION
2
ENTITIES
0
LINE
5
100
100
AcDbEntity
8
0
100
AcDbLine
10
357.99800000000005
20
-121.97499999999999
30
0
11
357.99900000000002
21
-121.97499999999999
31
0
0
LINE
5
101
100
AcDbEntity
8
0
100
AcDbLine
10
275.99599999999998
20
-219.02500000000003
30
0
11
275.995
21
-219.02500000000003
31
0
0
LINE
5
102
100
AcDbEntity
8
0
100
AcDbLine
10
304.02499999999998
20
-131.71342410016302
30
0
11
304.02499999999998
21
-133.97500000000002
31
0
0
LINE
5
103
100
AcDbEntity
8
0
100
AcDbLine
10
276.00599999999997
20
-219.024
30
0
11
276.00400000000002
21
-219.02500000000003
31
0
0
LINE
5
104
100
AcDbEntity
8
0
100
AcDbLine
10
275.99700000000001
20
-219.02500000000003
30
0
11
275.99599999999998
21
-219.02500000000003
31
0
0
LINE
5
105
100
AcDbEntity
8
0
100
AcDbLine
10
230.00200000000004
20
-122.97499999999999
30
0
11
299.29488719957146
21
-126.72071332348995
31
0
0
LINE
5
106
100
AcDbEntity
8
0
100
AcDbLine
10
275.99400000000003
20
-219.024
30
0
11
275.99299999999999
21
-219.024
31
0
0
LINE
5
107
100
AcDbEntity
8
0
100
AcDbLine
10
275.995
20
-219.02500000000003
30
0
11
275.99400000000003
21
-219.024
31
0
0
LINE
5
108
100
AcDbEntity
8
0
100
AcDbLine
10
230.001
20
-122.97499999999999
30
0
11
230.00200000000004
21
-122.97499999999999
31
0
0
LINE
5
109
100
AcDbEntity
8
0
100
AcDbLine
10
304.02499999999998
20
-133.97500000000002
30
0
11
304.97500000000002
21
-133.97500000000002
31
0
0
LINE
5
110
100
AcDbEntity
8
0
100
AcDbLine
10
229.99900000000002
20
-122.97499999999999
30
0
11
230
21
-122.97499999999999
31
0
0
LINE
5
111
100
AcDbEntity
8
0
100
AcDbLine
10
220.989
20
-207.02300000000002
30
0
11
179.29448408742792
21
-190.51875790522419
31
0
0
LINE
5
112
100
AcDbEntity
8
0
100
AcDbLine
10
220.99200000000002
20
-207.024
30
0
11
220.99200000000002
21
-207.024
31
0
0
LINE
5
113
100
AcDbEntity
8
0
100
AcDbLine
10
220.99299999999999
20
-207.024
30
0
11
220.99299999999999
21
-207.024
31
0
0
LINE
5
114
100
AcDbEntity
8
0
100
AcDbLine
10
276.00400000000002
20
-219.02500000000003
30
0
11
276.00400000000002
21
-219.02500000000003
31
0
0
LINE
5
115
100
AcDbEntity
8
0
100
AcDbLine
10
304.97500000000002
20
-133.97500000000002
30
0
11
304.97500000000002
21
-131.52784496189958
31
0
0
LINE
5
116
100
AcDbEntity
8
0
100
AcDbLine
10
172.97499999999999
20
-181.22070420472826
30
0
11
172.97499999999999
21
-141.49341765511559
31
0
0
LINE
5
117
100
AcDbEntity
8
0
100
AcDbLine
10
211.45132883917913
20
-122.97500000000001
30
0
11
229.99900000000002
21
-122.97499999999999
31
0
0
LINE
5
118
100
AcDbEntity
8
0
100
AcDbLine
10
304.024
20
-169.00599999999997
30
0
11
298.78359465441059
21
-201.32547274147635
31
0
0
LINE
5
119
100
AcDbEntity
8
0
100
AcDbLine
10
230
20
-122.97499999999999
30
0
11
230.001
21
-122.97499999999999
31
0
0
LINE
5
120
100
AcDbEntity
8
0
100
AcDbLine
10
357.99900000000002
20
-121.97499999999999
30
0
11
357.99900000000002
21
-121.97499999999999
31
0
0
LINE
5
121
100
AcDbEntity
8
0
100
AcDbLine
10
276.00200000000001
20
-219.02500000000003
30
0
11
276
21
-219.02500000000003
31
0
0
LINE
5
122
100
AcDbEntity
8
0
100
AcDbLine
10
276
20
-219.02500000000003
30
0
11
275.99900000000002
21
-219.02500000000003
31
0
0
LINE
5
123
100
AcDbEntity
8
0
100
AcDbLine
10
276.01400000000001
20
-219.02100000000002
30
0
11
276.012
21
-219.02200000000005
31
0
0
LINE
5
124
100
AcDbEntity
8
0
100
AcDbLine
10
276.00900000000001
20
-219.023
30
0
11
276.00900000000001
21
-219.024
31
0
0
LINE
5
125
100
AcDbEntity
8
0
100
AcDbLine
10
357.99900000000002
20
-121.97499999999999
30
0
11
357.99900000000002
21
-121.97499999999999
31
0
0
LINE
5
126
100
AcDbEntity
8
0
100
AcDbLine
10
357.99900000000002
20
-121.97499999999999
30
0
11
358.00000000000006
21
-121.97499999999999
31
0
0
LINE
5
127
100
AcDbEntity
8
0
100
AcDbLine
10
377.99800000000005
20
-121.97499999999999
30
0
11
377.99800000000005
21
-121.97499999999999
31
0
0
LINE
5
128
100
AcDbEntity
8
0
100
AcDbLine
10
279.37746864798578
20
-216.97482447255868
30
0
11
293.99987049312961
21
-208.33416310289525
31
0
0
LINE
5
129
100
AcDbEntity
8
0
100
AcDbLine
10
377.99800000000005
20
-121.97499999999999
30
0
11
377.99900000000002
21
-121.97499999999999
31
0
0
LINE
5
130
100
AcDbEntity
8
0
100
AcDbLine
10
276.012
20
-219.02200000000005
30
0
11
276.012
21
-219.02200000000005
31
0
0
LINE
5
131
100
AcDbEntity
8
0
100
AcDbLine
10
276.01400000000001
20
-219.02100000000002
30
0
11
276.01400000000001
21
-219.02100000000002
31
0
0
LINE
5
132
100
AcDbEntity
8
0
100
AcDbLine
10
276.00400000000002
20
-219.02500000000003
30
0
11
276.00200000000001
21
-219.02500000000003
31
0
0
LINE
5
133
100
AcDbEntity
8
0
100
AcDbLine
10
275.99900000000002
20
-219.02500000000003
30
0
11
275.99900000000002
21
-219.02500000000003
31
0
0
LINE
5
134
100
AcDbEntity
8
0
100
AcDbLine
10
276.00900000000001
20
-219.024
30
0
11
276.00799999999998
21
-219.024
31
0
0
LINE
5
135
100
AcDbEntity
8
0
100
AcDbLine
10
276.00799999999998
20
-219.024
30
0
11
276.00599999999997
21
-219.024
31
0
0
LINE
5
136
100
AcDbEntity
8
0
100
AcDbLine
10
304.02499999999998
20
-169.005
30
0
11
304.024
21
-169.00599999999997
31
0
0
LINE
5
137
100
AcDbEntity
8
0
100
AcDbLine
10
276.01099999999997
20
-219.02200000000005
30
0
11
276.00900000000001
21
-219.023
31
0
0
LINE
5
138
100
AcDbEntity
8
0
100
AcDbLine
10
368.02723785097089
20
-207.24205624539226
30
0
11
324.05870973054988
21
-217.01274979522799
31
0
0
LINE
5
139
100
AcDbEntity
8
0
100
AcDbLine
10
304.97500000000002
20
-169.00200000000001
30
0
11
304.97500000000002
21
-169.00099999999998
31
0
0
LINE
5
140
100
AcDbEntity
8
0
100
AcDbLine
10
378.00999999999999
20
-121.977
30
0
11
378.00999999999999
21
-121.977
31
0
0
LINE
5
141
100
AcDbEntity
8
0
100
AcDbLine
10
275.99900000000002
20
-219.02500000000003
30
0
11
275.99700000000001
21
-219.02500000000003
31
0
0
LINE
5
142
100
AcDbEntity
8
0
100
AcDbLine
10
276.012
20
-219.02200000000005
30
0
11
276.01099999999997
21
-219.02200000000005
31
0
0
LINE
5
143
100
AcDbEntity
8
0
100
AcDbLine
10
276.00400000000002
20
-219.02500000000003
30
0
11
276.00400000000002
21
-219.02500000000003
31
0
0
LINE
5
144
100
AcDbEntity
8
0
100
AcDbLine
10
308.976
20
-199.00599999999997
30
0
11
308.976
21
-199.005
31
0
0
LINE
5
145
100
AcDbEntity
8
0
100
AcDbLine
10
308.86987352096344
20
-198.21363025208495
30
0
11
304.97500000000002
21
-169.005
31
0
0
LINE
5
146
100
AcDbEntity
8
0
100
AcDbLine
10
406.94728665152206
20
-130.87156175677015
30
0
11
377.99599999999998
21
-122.02500000000001
31
0
0
LINE
5
147
100
AcDbEntity
8
0
100
AcDbLine
10
377.99599999999998
20
-122.02500000000001
30
0
11
358.00099999999998
21
-122.02500000000001
31
0
0
LWPOLYLINE
5
148
100
AcDbEntity
8
0
100
AcDbPolyline
90
50
70
1
43
0.0
10
305.00099999999998
20
-141.97499999999999
10
305.00099999999998
20
-141.97499999999999
10
305.005
20
-141.97499999999999
10
305.00999999999999
20
-141.977
10
305.01400000000001
20
-141.97899999999998
10
305.01799999999997
20
-141.982
10
305.02099999999996
20
-141.98599999999999
10
305.02299999999997
20
-141.99000000000001
10
305.02499999999998
20
-141.995
10
305.02499999999998
20
-142
10
305.02499999999998
20
-142.001
10
305.02499999999998
20
-154.999
10
305.02499999999998
20
-155
10
305.02499999999998
20
-155.001
10
305.02499999999998
20
-155.005
10
305.02299999999997
20
-155.00999999999999
10
305.02099999999996
20
-155.01400000000001
10
305.01799999999997
20
-155.018
10
305.01400000000001
20
-155.02100000000002
10
305.00999999999999
20
-155.023
10
305.005
20
-155.02500000000001
10
305
20
-155.02500000000001
10
304.99900000000002
20
-155.02500000000001
10
304.00099999999998
20
-155.02500000000001
10
304
20
-155.02500000000001
10
303.99900000000002
20
-155.02500000000001
10
303.99900000000002
20
-155.02500000000001
10
303.995
20
-155.02500000000001
10
303.99000000000001
20
-155.023
10
303.98599999999999
20
-155.02100000000002
10
303.98200000000003
20
-155.018
10
303.97900000000004
20
-155.01400000000001
10
303.97700000000003
20
-155.00999999999999
10
303.97500000000002
20
-155.005
10
303.97500000000002
20
-155
10
303.97500000000002
20
-154.999
10
303.97500000000002
20
-142.001
10
303.97500000000002
20
-142
10
303.97500000000002
20
-141.995
10
303.97700000000003
20
-141.99000000000001
10
303.97900000000004
20
-141.98599999999999
10
303.98200000000003
20
-141.982
10
303.98599999999999
20
-141.97899999999998
10
303.99000000000001
20
-141.977
10
303.995
20
-141.97499999999999
10
303.99900000000002
20
-141.97499999999999
10
304
20
-141.97499999999999
10
304.00099999999998
20
-141.97499999999999
10
304.99900000000002
20
-141.97499999999999
10
305
20
-141.97499999999999
0
LINE
5
149
100
AcDbEntity
8
0
100
AcDbLine
10
378.00599999999997
20
-121.97600000000001
30
0
11
378.00700000000001
21
-121.97600000000001
31
0
0
LINE
5
150
100
AcDbEntity
8
0
100
AcDbLine
10
308.976
20
-199.005
30
0
11
308.97500000000002
21
-199.005
31
0
0
LINE
5
151
100
AcDbEntity
8
0
100
AcDbLine
10
304.02499999999998
20
-169.00200000000001
30
0
11
304.02499999999998
21
-169.00299999999999
31
0
0
LINE
5
152
100
AcDbEntity
8
0
100
AcDbLine
10
304.97500000000002
20
-169.00000000000003
30
0
11
304.97500000000002
21
-168.99799999999999
31
0
0
LINE
5
153
100
AcDbEntity
8
0
100
AcDbLine
10
230.001
20
-122.97499999999999
30
0
11
230.001
21
-122.97499999999999
31
0
0
LWPOLYLINE
5
154
100
AcDbEntity
8
0
100
AcDbPolyline
90
4
70
1
43
0.0
10
304.02499999999998
20
-154.97499999999999
10
304.02499999999998
20
-142.02500000000001
10
304.97500000000002
20
-142.02500000000001
10
304.97500000000002
20
-154.97499999999999
0
LINE
5
155
100
AcDbEntity
8
0
100
AcDbLine
10
304.97500000000002
20
-169.005
30
0
11
304.97500000000002
21
-169.005
31
0
0
LINE
5
156
100
AcDbEntity
8
0
100
AcDbLine
10
308.976
20
-199.00599999999997
30
0
11
308.976
21
-199.00599999999997
31
0
0
LINE
5
157
100
AcDbEntity
8
0
100
AcDbLine
10
304.02499999999998
20
-168.99900000000002
30
0
11
304.02499999999998
21
-169.00099999999998
31
0
0
LINE
5
158
100
AcDbEntity
8
0
100
AcDbLine
10
308.976
20
-199.00800000000001
30
0
11
308.976
21
-199.00599999999997
31
0
0
LINE
5
159
100
AcDbEntity
8
0
100
AcDbLine
10
304.97500000000002
20
-169.005
30
0
11
304.97500000000002
21
-169.00299999999999
31
0
0
LINE
5
160
100
AcDbEntity
8
0
100
AcDbLine
10
308.97500000000002
20
-199.005
30
0
11
308.97500000000002
21
-199.00400000000005
31
0
0
LINE
5
161
100
AcDbEntity
8
0
100
AcDbLine
10
304.97500000000002
20
-169.00299999999999
30
0
11
304.97500000000002
21
-169.00200000000001
31
0
0
LINE
5
162
100
AcDbEntity
8
0
100
AcDbLine
10
304.97500000000002
20
-169.00200000000001
30
0
11
304.97500000000002
21
-169.00200000000001
31
0
0
LINE
5
163
100
AcDbEntity
8
0
100
AcDbLine
10
378.00599999999997
20
-121.97600000000001
30
0
11
378.00599999999997
21
-121.97600000000001
31
0
0
LINE
5
164
100
AcDbEntity
8
0
100
AcDbLine
10
308.97500000000002
20
-199.00400000000005
30
0
11
308.97500000000002
21
-199.00200000000001
31
0
0
LINE
5
165
100
AcDbEntity
8
0
100
AcDbLine
10
378.00099999999998
20
-121.97499999999999
30
0
11
378.00099999999998
21
-121.97499999999999
31
0
0
LINE
5
166
100
AcDbEntity
8
0
100
AcDbLine
10
304.97500000000002
20
-169.00099999999998
30
0
11
304.97500000000002
21
-169.00000000000003
31
0
0
LINE
5
167
100
AcDbEntity
8
0
100
AcDbLine
10
308.97700000000003
20
-199.00900000000004
30
0
11
308.976
21
-199.00800000000001
31
0
0
LINE
5
168
100
AcDbEntity
8
0
100
AcDbLine
10
304.97500000000002
20
-163.02500000000003
30
0
11
304.02499999999998
21
-163.02500000000003
31
0
0
LINE
5
169
100
AcDbEntity
8
0
100
AcDbLine
10
378.00099999999998
20
-121.97499999999999
30
0
11
378.00300000000004
21
-121.97499999999999
31
0
0
LINE
5
170
100
AcDbEntity
8
0
100
AcDbLine
10
304.97500000000002
20
-168.99799999999999
30
0
11
304.97500000000002
21
-163.02500000000003
31
0
0
LINE
5
171
100
AcDbEntity
8
0
100
AcDbLine
10
377.99900000000002
20
-121.97499999999999
30
0
11
378.00099999999998
21
-121.97499999999999
31
0
0
LINE
5
172
100
AcDbEntity
8
0
100
AcDbLine
10
408.03636581819597
20
-189.67748933290147
30
0
11
369.9193182333334
21
-206.61830525026818
31
0
0
LINE
5
173
100
AcDbEntity
8
0
100
AcDbLine
10
304.02499999999998
20
-163.02500000000003
30
0
11
304.02499999999998
21
-168.99799999999999
31
0
0
LINE
5
174
100
AcDbEntity
8
0
100
AcDbLine
10
304.02499999999998
20
-168.99799999999999
30
0
11
304.02499999999998
21
-168.99900000000002
31
0
0
LINE
5
175
100
AcDbEntity
8
0
100
AcDbLine
10
378.00300000000004
20
-121.97499999999999
30
0
11
378.00400000000002
21
-121.97499999999999
31
0
0
LINE
5
176
100
AcDbEntity
8
0
100
AcDbLine
10
378.00700000000001
20
-121.97600000000001
30
0
11
378.00999999999999
21
-121.977
31
0
0
LINE
5
177
100
AcDbEntity
8
0
100
AcDbLine
10
308.97500000000002
20
-199.00200000000001
30
0
11
308.97500000000002
21
-199.00200000000001
31
0
0
LINE
5
178
100
AcDbEntity
8
0
100
AcDbLine
10
378.005
20
-121.97499999999999
30
0
11
378.00599999999997
21
-121.97600000000001
31
0
0
LINE
5
179
100
AcDbEntity
8
0
100
AcDbLine
10
304.02499999999998
20
-169.00299999999999
30
0
11
304.02499999999998
21
-169.00299999999999
31
0
0
LINE
5
180
100
AcDbEntity
8
0
100
AcDbLine
10
378.00400000000002
20
-121.97499999999999
30
0
11
378.005
21
-121.97499999999999
31
0
0
LINE
5
181
100
AcDbEntity
8
0
100
AcDbLine
10
304.97500000000002
20
-168.99799999999999
30
0
11
304.97500000000002
21
-168.99799999999999
31
0
0
LINE
5
182
100
AcDbEntity
8
0
100
AcDbLine
10
304.02499999999998
20
-169.00099999999998
30
0
11
304.02499999999998
21
-169.00200000000001
31
0
0
LINE
5
183
100
AcDbEntity
8
0
100
AcDbLine
10
304.02499999999998
20
-169.00299999999999
30
0
11
304.02499999999998
21
-169.005
31
0
0
LINE
5
184
100
AcDbEntity
8
0
100
AcDbLine
10
312.31105597793658
20
-210.12400222321091
30
0
11
309.20376689443333
21
-199.76499046700377
31
0
0
LINE
5
185
100
AcDbEntity
8
0
100
AcDbLine
10
304.02499999999998
20
-169.00099999999998
30
0
11
304.02499999999998
21
-169.00099999999998
31
0
0
ARC
5
186
100
AcDbEntity
8
0
100
AcDbCircle
10
182.97499999999997
20
-141.49341765511554
30
0
40
9.999999999999968
210
0
220
0
230
1
100
AcDbArc
50
106.55741765344047
51
180
0
ARC
5
187
100
AcDbEntity
8
0
100
AcDbCircle
10
182.97500000000025
20
-181.22070420472821
30
0
40
10.000000000000249
210
0
220
0
230
1
100
AcDbArc
50
180
51
248.40449604500589
0
ARC
5
188
100
AcDbEntity
8
0
100
AcDbCircle
10
274.29010954931931
20
-208.36559817740206
30
0
40
10.000000000000052
210
0
220
0
230
1
100
AcDbArc
50
257.69258094598308
51
300.57966596165642
0
ARC
5
189
100
AcDbEntity
8
0
100
AcDbCircle
10
288.91251139446342
20
-199.72493680773886
30
0
40
9.9999999999996874
210
-0
220
0
230
1
100
AcDbArc
50
300.57966596165573
51
350.78999301509282
0
ARC
5
190
100
AcDbEntity
8
0
100
AcDbCircle
10
211.45132883917907
20
-132.97499999999982
30
0
40
9.9999999999998224
210
0
220
-0
230
1
100
AcDbArc
50
89.999999999999673
51
106.5564945395805
0
ARC
5
191
100
AcDbEntity
8
0
100
AcDbCircle
10
299.02499999999998
20
-131.71342410016302
30
0
40
5
210
0
220
-0
230
1
100
AcDbArc
50
0
51
86.905816744952745
0
ARC
5
192
100
AcDbEntity
8
0
100
AcDbCircle
10
309.97500000000008
20
-131.52784496189963
30
0
40
5.000000000000079
210
0
220
0
230
1
100
AcDbArc
50
95.389513940363742
51
180
0
ARC
5
193
100
AcDbEntity
8
0
100
AcDbCircle
10
318.78213521121336
20
-196.89186318334441
30
0
40
10.000000000000142
210
0
220
0
230
1
100
AcDbArc
50
187.5953940420811
51
196.69714119282187
0
ARC
5
194
100
AcDbEntity
8
0
100
AcDbCircle
10
321.8894242947166
20
-207.25087493955184
30
0
40
10.000000000000071
210
0
220
0
230
1
100
AcDbArc
50
196.69714119282028
51
282.52869535611393
0
ARC
5
195
100
AcDbEntity
8
0
100
AcDbCircle
10
365.85795241513574
20
-197.48018138971079
30
0
40
10.000000000005627
210
0
220
0
230
1
100
AcDbArc
50
282.52869535611779
51
293.96237083358795
0
ARC
5
196
100
AcDbEntity
8
0
100
AcDbCircle
10
403.97500000000031
20
-180.53936547234957
30
0
40
9.9999999999997868
210
-0
220
0
230
1
100
AcDbArc
50
-66.037629166409701
51
0
0
ARC
5
197
100
AcDbEntity
8
0
100
AcDbCircle
10
404.0250000000002
20
-140.4350465152844
30
0
40
9.9999999999998579
210
-0
220
0
230
1
100
AcDbArc
50
0
51
73.008569837484487
0
LINE
5
198
100
AcDbEntity
8
0
100
AcDbLine
10
414.02500000000003
20
-140.43504651528451
30
0
11
413.97500000000008
21
-180.53936547234946
31
0
0
LINE
5
199
100
AcDbEntity
8
0
100
AcDbLine
10
208.6017226609477
20
-123.38960774777654
30
0
11
180.12523938827755
21
-131.90807131521342
31
0
0
LINE
5
200
100
AcDbEntity
8
0
100
AcDbLine
10
358.00099999999998
20
-122.02500000000001
30
0
11
309.50536946145053
21
-126.54994910548979
31
0
0
LINE
5
201
100
AcDbEntity
8
0
100
AcDbLine
10
220.99299999999999
20
-207.024
30
0
11
272.1585405582112
21
-218.13577799335977
31
0
0
LINE
5
202
100
AcDbEntity
8
0
100
AcDbLine
10
220.989
20
-207.02300000000002
30
0
11
220.99299999999999
21
-207.024
31
0
0
ENDSEC
0
SECTION
2
OBJECTS
0
DICTIONARY
5
C
100
AcDbDictionary
3
ACAD_GROUP
350
D
3
ACAD_MLINESTYLE
350
17
0
DICTIONARY
5
D
100
AcDbDictionary
0
DICTIONARY
5
1A
330
C
100
AcDbDictionary
0
DICTIONARY
5
17
100
AcDbDictionary
0
ENDSEC
0
EOF
