M48
; DRILL file {KiCad (5.1.9-0-10_14)} date Sunday, June 06, 2021 at 06:46:09 PM
; FORMAT={-:-/ absolute / metric / decimal}
; #@! TF.CreationDate,2021-06-06T18:46:09+01:00
; #@! TF.GenerationSoftware,Kicad,Pcbnew,(5.1.9-0-10_14)
; #@! TF.FileFunction,NonPlated,1,2,NPTH
FMAT,2
METRIC
T1C1.700
T2C2.400
T3C3.200
T4C3.400
%
G90
G05
T1
X178.5Y-143.5
X178.5Y-160.5
X178.5Y-177.5
X189.5Y-143.5
X189.5Y-160.5
X189.5Y-177.5
X196.5Y-138.5
X196.5Y-155.5
X196.5Y-172.5
X207.5Y-138.5
X207.5Y-155.5
X207.5Y-172.5
X214.5Y-133.0
X214.5Y-150.0
X214.5Y-167.0
X225.5Y-133.0
X225.5Y-150.0
X225.5Y-167.0
X226.584Y-198.045
X232.5Y-135.5
X232.5Y-152.5
X232.5Y-169.5
X237.416Y-199.955
X243.5Y-135.5
X243.5Y-152.5
X243.5Y-169.5
X244.62Y-201.356
X250.5Y-138.0
X250.5Y-155.0
X250.5Y-172.0
X255.38Y-203.644
X261.5Y-138.0
X261.5Y-155.0
X261.5Y-172.0
X262.613Y-205.019
X273.287Y-207.681
X316.663Y-207.831
X326.44Y-138.0
X326.44Y-155.0
X326.44Y-172.0
X327.337Y-205.169
X334.62Y-203.644
X337.44Y-138.0
X337.44Y-155.0
X337.44Y-172.0
X344.5Y-135.5
X344.5Y-152.5
X344.5Y-169.5
X345.38Y-201.356
X352.584Y-199.955
X355.5Y-135.5
X355.5Y-152.5
X355.5Y-169.5
X362.5Y-149.5
X362.5Y-166.5
X362.52Y-132.6
X363.416Y-198.045
X373.5Y-149.5
X373.5Y-166.5
X373.52Y-132.6
X380.5Y-138.0
X380.5Y-155.0
X380.5Y-172.0
X391.5Y-138.0
X391.5Y-155.0
X391.5Y-172.0
X398.5Y-143.0
X398.5Y-160.0
X398.5Y-177.0
X409.5Y-143.0
X409.5Y-160.0
X409.5Y-177.0
T2
X296.0Y-130.5
X296.0Y-145.5
X296.0Y-151.0
X296.0Y-166.0
X313.0Y-130.5
X313.0Y-145.5
X313.0Y-151.0
X313.0Y-166.0
T3
X294.95Y-200.82
X295.32Y-173.71
T4
X184.0Y-143.5
X184.0Y-160.5
X184.0Y-177.5
X202.0Y-138.5
X202.0Y-155.5
X202.0Y-172.5
X220.0Y-133.0
X220.0Y-150.0
X220.0Y-167.0
X232.0Y-199.0
X238.0Y-135.5
X238.0Y-152.5
X238.0Y-169.5
X250.0Y-202.5
X256.0Y-138.0
X256.0Y-155.0
X256.0Y-172.0
X267.95Y-206.35
X322.0Y-206.5
X331.94Y-138.0
X331.94Y-155.0
X331.94Y-172.0
X340.0Y-202.5
X350.0Y-135.5
X350.0Y-152.5
X350.0Y-169.5
X358.0Y-199.0
X368.0Y-149.5
X368.0Y-166.5
X368.02Y-132.6
X386.0Y-138.0
X386.0Y-155.0
X386.0Y-172.0
X404.0Y-143.0
X404.0Y-160.0
X404.0Y-177.0
T0
M30
