M48
; DRILL file {KiCad (5.1.9-0-10_14)} date Sunday, June 06, 2021 at 06:46:09 PM
; FORMAT={-:-/ absolute / metric / decimal}
; #@! TF.CreationDate,2021-06-06T18:46:09+01:00
; #@! TF.GenerationSoftware,Kicad,Pcbnew,(5.1.9-0-10_14)
; #@! TF.FileFunction,Plated,1,2,PTH
FMAT,2
METRIC
T1C0.400
T2C0.813
T3C1.000
T4C1.092
T5C1.200
T6C1.300
%
G90
G05
T1
X266.0Y-139.0
X267.0Y-137.0
X275.0Y-136.0
X276.0Y-139.0
X277.0Y-147.0
X278.0Y-148.0
X322.0Y-146.0
X332.0Y-158.0
X332.0Y-166.0
T2
X274.0Y-162.5
X276.54Y-162.5
X279.08Y-162.5
X281.62Y-162.5
T3
X276.46Y-165.42
X276.46Y-167.96
X276.46Y-170.5
X276.46Y-173.04
X279.0Y-165.42
X279.0Y-167.96
X279.0Y-170.5
X279.0Y-173.04
T4
X270.151Y-131.53
X270.151Y-136.61
X270.151Y-141.69
X270.151Y-146.77
X270.151Y-151.85
X270.151Y-156.93
X270.609Y-134.07
X270.609Y-139.15
X270.609Y-144.23
X270.609Y-149.31
X270.609Y-154.39
X270.609Y-159.47
X272.92Y-159.699
X275.46Y-159.241
X278.0Y-159.699
X280.54Y-159.241
X283.08Y-159.699
X285.391Y-134.07
X285.391Y-139.15
X285.391Y-144.23
X285.391Y-149.31
X285.391Y-154.39
X285.391Y-159.47
X285.849Y-131.53
X285.849Y-136.61
X285.849Y-141.69
X285.849Y-146.77
X285.849Y-151.85
X285.849Y-156.93
T5
X179.0Y-147.3
X179.0Y-164.3
X179.0Y-181.3
X184.0Y-149.4
X184.0Y-166.4
X184.0Y-183.4
X197.0Y-142.3
X197.0Y-159.3
X197.0Y-176.3
X202.0Y-144.4
X202.0Y-161.4
X202.0Y-178.4
X215.0Y-136.8
X215.0Y-153.8
X215.0Y-170.8
X220.0Y-138.9
X220.0Y-155.9
X220.0Y-172.9
X226.416Y-201.874
X230.975Y-204.81
X233.0Y-139.3
X233.0Y-156.3
X233.0Y-173.3
X238.0Y-141.4
X238.0Y-158.4
X238.0Y-175.4
X244.319Y-205.177
X248.773Y-208.271
X251.0Y-141.8
X251.0Y-158.8
X251.0Y-175.8
X256.0Y-143.9
X256.0Y-160.9
X256.0Y-177.9
X262.179Y-208.828
X266.523Y-212.075
X318.068Y-211.397
X323.427Y-212.225
X326.94Y-141.8
X326.94Y-158.8
X326.94Y-175.8
X331.94Y-143.9
X331.94Y-160.9
X331.94Y-177.9
X335.899Y-207.257
X341.227Y-208.271
X345.0Y-139.3
X345.0Y-156.3
X345.0Y-173.3
X350.0Y-141.4
X350.0Y-158.4
X350.0Y-175.4
X353.736Y-203.611
X359.025Y-204.81
X363.0Y-153.3
X363.0Y-170.3
X363.02Y-136.4
X368.0Y-155.4
X368.0Y-172.4
X368.02Y-138.5
X381.0Y-141.8
X381.0Y-158.8
X381.0Y-175.8
X386.0Y-143.9
X386.0Y-160.9
X386.0Y-177.9
X399.0Y-146.8
X399.0Y-163.8
X399.0Y-180.8
X404.0Y-148.9
X404.0Y-165.9
X404.0Y-182.9
T6
X267.0Y-128.25
X267.0Y-134.75
X288.5Y-133.0
X288.5Y-143.0
X288.5Y-153.5
X288.5Y-163.5
X291.0Y-130.5
X291.0Y-138.0
X291.0Y-145.5
X291.0Y-151.0
X291.0Y-158.5
X291.0Y-166.0
X301.0Y-135.5
X301.0Y-140.5
X301.0Y-156.0
X301.0Y-161.0
X308.0Y-135.5
X308.0Y-140.5
X308.0Y-156.0
X308.0Y-161.0
X318.0Y-130.5
X318.0Y-138.0
X318.0Y-145.5
X318.0Y-151.0
X318.0Y-158.5
X318.0Y-166.0
X320.5Y-133.0
X320.5Y-143.0
X320.5Y-153.5
X320.5Y-163.5
T0
M30
