%TF.GenerationSoftware,KiCad,Pcbnew,(5.1.9-0-10_14)*%
%TF.CreationDate,2021-06-06T18:46:05+01:00*%
%TF.ProjectId,dual_wield,6475616c-5f77-4696-956c-642e6b696361,rev?*%
%TF.SameCoordinates,Original*%
%TF.FileFunction,Profile,NP*%
%FSLAX46Y46*%
G04 Gerber Fmt 4.6, Leading zero omitted, Abs format (unit mm)*
G04 Created by KiCad (PCBNEW (5.1.9-0-10_14)) date 2021-06-06 18:46:05*
%MOMM*%
%LPD*%
G01*
G04 APERTURE LIST*
%TA.AperFunction,Profile*%
%ADD10C,0.500000*%
%TD*%
G04 APERTURE END LIST*
D10*
X304000000Y-141975000D02*
X303975000Y-154999000D01*
X179294484Y-190518758D02*
G75*
G02*
X172974999Y-181220704I6052017J10909861D01*
G01*
X406947286Y-130871561D02*
G75*
G02*
X414025000Y-140435046I-2007112J-8886186D01*
G01*
X413975000Y-180539366D02*
G75*
G02*
X408036365Y-189677489I-9045321J-620421D01*
G01*
X369919318Y-206618305D02*
G75*
G02*
X368027237Y-207242056I-3014435J5962372D01*
G01*
X324058710Y-217012751D02*
G75*
G02*
X312311055Y-210124002I-2183620J9737432D01*
G01*
X309203766Y-199764990D02*
G75*
G02*
X308869873Y-198213630I7860487J2503394D01*
G01*
X304975000Y-131527844D02*
G75*
G02*
X309505369Y-126549949I5703881J-640601D01*
G01*
X299294887Y-126720712D02*
G75*
G02*
X304025000Y-131713424I-167606J-4895810D01*
G01*
X298783595Y-201325472D02*
G75*
G02*
X293999870Y-208334163I-9032489J1028160D01*
G01*
X279377468Y-216974824D02*
G75*
G02*
X272158540Y-218135777I-5194353J9274525D01*
G01*
X208601722Y-123389607D02*
G75*
G02*
X211451328Y-122975000I2158326J-4834213D01*
G01*
X172975000Y-141493416D02*
G75*
G02*
X180125239Y-131908071I9803966J146231D01*
G01*
X305023000Y-155010000D02*
X303975000Y-154999000D01*
X305025000Y-141995000D02*
X305023000Y-155010000D01*
X304000000Y-141975000D02*
X305025000Y-141995000D01*
X304975000Y-133975000D02*
X304975000Y-131527844D01*
X304024999Y-133975000D02*
X304975000Y-133975000D01*
X304025000Y-131713424D02*
X304024999Y-133975000D01*
X230001999Y-122975000D02*
X299294887Y-126720713D01*
X211451328Y-122975000D02*
X230001999Y-122975000D01*
X180125239Y-131908071D02*
X208601722Y-123389607D01*
X172975000Y-181220704D02*
X172975000Y-141493417D01*
X220993000Y-207024000D02*
X179294484Y-190518757D01*
X272158540Y-218135777D02*
X220993000Y-207024000D01*
X293999870Y-208334163D02*
X279377468Y-216974824D01*
X304025000Y-169005000D02*
X298783594Y-201325472D01*
X304025000Y-163025000D02*
X304025000Y-169005000D01*
X304975000Y-163025000D02*
X304025000Y-163025000D01*
X304975000Y-169004999D02*
X304975000Y-163025000D01*
X308869873Y-198213630D02*
X304975000Y-169004999D01*
X312311055Y-210124002D02*
X309203766Y-199764990D01*
X368027237Y-207242056D02*
X324058709Y-217012749D01*
X408036365Y-189677489D02*
X369919318Y-206618305D01*
X414025000Y-140435046D02*
X413975000Y-180539365D01*
X358001000Y-122025000D02*
X406947286Y-130871561D01*
X309505369Y-126549949D02*
X358001000Y-122025000D01*
M02*
