%TF.GenerationSoftware,KiCad,Pcbnew,(5.1.9-0-10_14)*%
%TF.CreationDate,2021-06-06T18:46:05+01:00*%
%TF.ProjectId,dual_wield,6475616c-5f77-4696-956c-642e6b696361,rev?*%
%TF.SameCoordinates,Original*%
%TF.FileFunction,Copper,L2,Bot*%
%TF.FilePolarity,Positive*%
%FSLAX46Y46*%
G04 Gerber Fmt 4.6, Leading zero omitted, Abs format (unit mm)*
G04 Created by KiCad (PCBNEW (5.1.9-0-10_14)) date 2021-06-06 18:46:05*
%MOMM*%
%LPD*%
G01*
G04 APERTURE LIST*
%TA.AperFunction,ComponentPad*%
%ADD10C,1.752600*%
%TD*%
%TA.AperFunction,ComponentPad*%
%ADD11R,1.752600X1.752600*%
%TD*%
%TA.AperFunction,ComponentPad*%
%ADD12C,2.000000*%
%TD*%
%TA.AperFunction,ComponentPad*%
%ADD13C,1.397000*%
%TD*%
%TA.AperFunction,ComponentPad*%
%ADD14O,1.700000X1.700000*%
%TD*%
%TA.AperFunction,ComponentPad*%
%ADD15R,1.700000X1.700000*%
%TD*%
%TA.AperFunction,ComponentPad*%
%ADD16C,1.950000*%
%TD*%
%TA.AperFunction,ComponentPad*%
%ADD17R,1.950000X1.950000*%
%TD*%
%TA.AperFunction,ViaPad*%
%ADD18C,0.800000*%
%TD*%
%TA.AperFunction,Conductor*%
%ADD19C,0.250000*%
%TD*%
%TA.AperFunction,Conductor*%
%ADD20C,0.750000*%
%TD*%
G04 APERTURE END LIST*
D10*
%TO.P,U1,25*%
%TO.N,row3*%
X283080000Y-159698600D03*
%TO.P,U1,26*%
%TO.N,row1*%
X280540000Y-159241400D03*
%TO.P,U1,27*%
%TO.N,row2*%
X278000000Y-159698600D03*
%TO.P,U1,28*%
%TO.N,Net-(U1-Pad28)*%
X275460000Y-159241400D03*
%TO.P,U1,29*%
%TO.N,Net-(U1-Pad29)*%
X272920000Y-159698600D03*
%TO.P,U1,24*%
%TO.N,col1*%
X270151400Y-131530000D03*
%TO.P,U1,12*%
%TO.N,row0*%
X285391400Y-159470000D03*
%TO.P,U1,23*%
%TO.N,Net-(SW1-Pad1)*%
X270608600Y-134070000D03*
%TO.P,U1,22*%
%TO.N,Net-(SW1-Pad2)*%
X270151400Y-136610000D03*
%TO.P,U1,21*%
%TO.N,VCC*%
X270608600Y-139150000D03*
%TO.P,U1,20*%
%TO.N,col2*%
X270151400Y-141690000D03*
%TO.P,U1,19*%
%TO.N,col3*%
X270608600Y-144230000D03*
%TO.P,U1,18*%
%TO.N,col4*%
X270151400Y-146770000D03*
%TO.P,U1,17*%
%TO.N,ss*%
X270608600Y-149310000D03*
%TO.P,U1,16*%
%TO.N,sc*%
X270151400Y-151850000D03*
%TO.P,U1,15*%
%TO.N,mi*%
X270608600Y-154390000D03*
%TO.P,U1,14*%
%TO.N,mo*%
X270151400Y-156930000D03*
%TO.P,U1,13*%
%TO.N,col0*%
X270608600Y-159470000D03*
%TO.P,U1,11*%
%TO.N,col7*%
X285848600Y-156930000D03*
%TO.P,U1,10*%
%TO.N,col9*%
X285391400Y-154390000D03*
%TO.P,U1,9*%
%TO.N,col6*%
X285848600Y-151850000D03*
%TO.P,U1,8*%
%TO.N,col5*%
X285391400Y-149310000D03*
%TO.P,U1,7*%
%TO.N,col8*%
X285848600Y-146770000D03*
%TO.P,U1,6*%
%TO.N,scl*%
X285391400Y-144230000D03*
%TO.P,U1,5*%
%TO.N,sda*%
X285848600Y-141690000D03*
%TO.P,U1,4*%
%TO.N,GND*%
X285391400Y-139150000D03*
%TO.P,U1,3*%
X285848600Y-136610000D03*
%TO.P,U1,2*%
%TO.N,Net-(U1-Pad2)*%
X285391400Y-134070000D03*
D11*
%TO.P,U1,1*%
%TO.N,Net-(U1-Pad1)*%
X285848600Y-131530000D03*
%TD*%
D12*
%TO.P,SW1,2*%
%TO.N,Net-(SW1-Pad2)*%
X267000000Y-134750000D03*
%TO.P,SW1,1*%
%TO.N,Net-(SW1-Pad1)*%
X267000000Y-128250000D03*
%TD*%
D13*
%TO.P,OL1,4*%
%TO.N,GND*%
X281620000Y-162500000D03*
%TO.P,OL1,3*%
%TO.N,VCC*%
X279080000Y-162500000D03*
%TO.P,OL1,2*%
%TO.N,scl*%
X276540000Y-162500000D03*
%TO.P,OL1,1*%
%TO.N,sda*%
X274000000Y-162500000D03*
%TD*%
D12*
%TO.P,K?1,2*%
%TO.N,Net-(D1-Pad2)*%
X179000000Y-147300000D03*
%TO.P,K?1,1*%
%TO.N,col0*%
X184000000Y-149400000D03*
%TD*%
%TO.P,K35,2*%
%TO.N,Net-(D36-Pad2)*%
X399000000Y-180800000D03*
%TO.P,K35,1*%
%TO.N,col9r*%
X404000000Y-182900000D03*
%TD*%
%TO.P,K34,2*%
%TO.N,Net-(D35-Pad2)*%
X399000000Y-163800000D03*
%TO.P,K34,1*%
%TO.N,col9r*%
X404000000Y-165900000D03*
%TD*%
%TO.P,K33,2*%
%TO.N,Net-(D34-Pad2)*%
X399000000Y-146800000D03*
%TO.P,K33,1*%
%TO.N,col9r*%
X404000000Y-148900000D03*
%TD*%
%TO.P,K32,2*%
%TO.N,Net-(D33-Pad2)*%
X381000000Y-175800000D03*
%TO.P,K32,1*%
%TO.N,col8r*%
X386000000Y-177900000D03*
%TD*%
%TO.P,K31,2*%
%TO.N,Net-(D32-Pad2)*%
X381000000Y-158800000D03*
%TO.P,K31,1*%
%TO.N,col8r*%
X386000000Y-160900000D03*
%TD*%
%TO.P,K30,2*%
%TO.N,Net-(D31-Pad2)*%
X381000000Y-141800000D03*
%TO.P,K30,1*%
%TO.N,col8r*%
X386000000Y-143900000D03*
%TD*%
%TO.P,K29,2*%
%TO.N,Net-(D30-Pad2)*%
X353735824Y-203610510D03*
%TO.P,K29,1*%
%TO.N,col7r*%
X359024524Y-204810366D03*
%TD*%
%TO.P,K28,2*%
%TO.N,Net-(D29-Pad2)*%
X363000000Y-170300000D03*
%TO.P,K28,1*%
%TO.N,col7r*%
X368000000Y-172400000D03*
%TD*%
%TO.P,K27,2*%
%TO.N,Net-(D28-Pad2)*%
X363000000Y-153300000D03*
%TO.P,K27,1*%
%TO.N,col7r*%
X368000000Y-155400000D03*
%TD*%
%TO.P,K26,2*%
%TO.N,Net-(D27-Pad2)*%
X363020000Y-136400000D03*
%TO.P,K26,1*%
%TO.N,col7r*%
X368020000Y-138500000D03*
%TD*%
%TO.P,K25,2*%
%TO.N,Net-(D26-Pad2)*%
X335899326Y-207256519D03*
%TO.P,K25,1*%
%TO.N,col6r*%
X341226679Y-208271071D03*
%TD*%
%TO.P,K24,2*%
%TO.N,Net-(D25-Pad2)*%
X345000000Y-173300000D03*
%TO.P,K24,1*%
%TO.N,col6r*%
X350000000Y-175400000D03*
%TD*%
%TO.P,K23,2*%
%TO.N,Net-(D24-Pad2)*%
X345000000Y-156300000D03*
%TO.P,K23,1*%
%TO.N,col6r*%
X350000000Y-158400000D03*
%TD*%
%TO.P,K22,2*%
%TO.N,Net-(D23-Pad2)*%
X345000000Y-139300000D03*
%TO.P,K22,1*%
%TO.N,col6r*%
X350000000Y-141400000D03*
%TD*%
%TO.P,K21,2*%
%TO.N,Net-(D22-Pad2)*%
X318067825Y-211396733D03*
%TO.P,K21,1*%
%TO.N,col5r*%
X323427339Y-212224745D03*
%TD*%
%TO.P,K20,2*%
%TO.N,Net-(D21-Pad2)*%
X326940000Y-175800000D03*
%TO.P,K20,1*%
%TO.N,col5r*%
X331940000Y-177900000D03*
%TD*%
%TO.P,K19,2*%
%TO.N,Net-(D20-Pad2)*%
X326940000Y-158800000D03*
%TO.P,K19,1*%
%TO.N,col5r*%
X331940000Y-160900000D03*
%TD*%
%TO.P,K18,2*%
%TO.N,Net-(D19-Pad2)*%
X326940000Y-141800000D03*
%TO.P,K18,1*%
%TO.N,col5r*%
X331940000Y-143900000D03*
%TD*%
%TO.P,K17,2*%
%TO.N,Net-(D18-Pad2)*%
X262179218Y-208827514D03*
%TO.P,K17,1*%
%TO.N,col4*%
X266522661Y-212074745D03*
%TD*%
%TO.P,K16,2*%
%TO.N,Net-(D17-Pad2)*%
X251000000Y-175800000D03*
%TO.P,K16,1*%
%TO.N,col4*%
X256000000Y-177900000D03*
%TD*%
%TO.P,K15,2*%
%TO.N,Net-(D16-Pad2)*%
X251000000Y-158800000D03*
%TO.P,K15,1*%
%TO.N,col4*%
X256000000Y-160900000D03*
%TD*%
%TO.P,K14,2*%
%TO.N,Net-(D15-Pad2)*%
X251000000Y-141800000D03*
%TO.P,K14,1*%
%TO.N,col4*%
X256000000Y-143900000D03*
%TD*%
%TO.P,K13,2*%
%TO.N,Net-(D14-Pad2)*%
X244319198Y-205177402D03*
%TO.P,K13,1*%
%TO.N,col3*%
X248773321Y-208271071D03*
%TD*%
%TO.P,K12,2*%
%TO.N,Net-(D13-Pad2)*%
X233000000Y-173300000D03*
%TO.P,K12,1*%
%TO.N,col3*%
X238000000Y-175400000D03*
%TD*%
%TO.P,K11,2*%
%TO.N,Net-(D12-Pad2)*%
X233000000Y-156300000D03*
%TO.P,K11,1*%
%TO.N,col3*%
X238000000Y-158400000D03*
%TD*%
%TO.P,K10,2*%
%TO.N,Net-(D11-Pad2)*%
X233000000Y-139300000D03*
%TO.P,K10,1*%
%TO.N,col3*%
X238000000Y-141400000D03*
%TD*%
%TO.P,K9,2*%
%TO.N,Net-(D10-Pad2)*%
X226416098Y-201874029D03*
%TO.P,K9,1*%
%TO.N,col2*%
X230975476Y-204810366D03*
%TD*%
%TO.P,K8,2*%
%TO.N,Net-(D9-Pad2)*%
X215000000Y-170800000D03*
%TO.P,K8,1*%
%TO.N,col2*%
X220000000Y-172900000D03*
%TD*%
%TO.P,K7,2*%
%TO.N,Net-(D8-Pad2)*%
X215000000Y-153800000D03*
%TO.P,K7,1*%
%TO.N,col2*%
X220000000Y-155900000D03*
%TD*%
%TO.P,K6,2*%
%TO.N,Net-(D7-Pad2)*%
X215000000Y-136800000D03*
%TO.P,K6,1*%
%TO.N,col2*%
X220000000Y-138900000D03*
%TD*%
%TO.P,K5,2*%
%TO.N,Net-(D6-Pad2)*%
X197000000Y-176300000D03*
%TO.P,K5,1*%
%TO.N,col1*%
X202000000Y-178400000D03*
%TD*%
%TO.P,K4,2*%
%TO.N,Net-(D5-Pad2)*%
X197000000Y-159300000D03*
%TO.P,K4,1*%
%TO.N,col1*%
X202000000Y-161400000D03*
%TD*%
%TO.P,K3,2*%
%TO.N,Net-(D4-Pad2)*%
X197000000Y-142300000D03*
%TO.P,K3,1*%
%TO.N,col1*%
X202000000Y-144400000D03*
%TD*%
%TO.P,K2,2*%
%TO.N,Net-(D3-Pad2)*%
X179000000Y-181300000D03*
%TO.P,K2,1*%
%TO.N,col0*%
X184000000Y-183400000D03*
%TD*%
%TO.P,K1,2*%
%TO.N,Net-(D2-Pad2)*%
X179000000Y-164300000D03*
%TO.P,K1,1*%
%TO.N,col0*%
X184000000Y-166400000D03*
%TD*%
D14*
%TO.P,JADNS1,8*%
%TO.N,mi*%
X279000000Y-173040000D03*
%TO.P,JADNS1,7*%
%TO.N,sc*%
X276460000Y-173040000D03*
%TO.P,JADNS1,6*%
%TO.N,mo*%
X279000000Y-170500000D03*
%TO.P,JADNS1,5*%
%TO.N,ss*%
X276460000Y-170500000D03*
%TO.P,JADNS1,4*%
%TO.N,VCC*%
X279000000Y-167960000D03*
%TO.P,JADNS1,3*%
%TO.N,GND*%
X276460000Y-167960000D03*
%TO.P,JADNS1,2*%
X279000000Y-165420000D03*
D15*
%TO.P,JADNS1,1*%
%TO.N,mot*%
X276460000Y-165420000D03*
%TD*%
D16*
%TO.P,J4,3*%
%TO.N,col7r*%
X318000000Y-151000000D03*
%TO.P,J4,4*%
%TO.N,col8r*%
X320500000Y-163500000D03*
%TO.P,J4,5*%
%TO.N,col9r*%
X320500000Y-153500000D03*
D17*
%TO.P,J4,1*%
%TO.N,col5r*%
X318000000Y-166000000D03*
D16*
%TO.P,J4,2*%
%TO.N,col6r*%
X318000000Y-158500000D03*
%TO.P,J4,E2*%
%TO.N,N/C*%
X308000000Y-161000000D03*
%TO.P,J4,E1*%
X308000000Y-156000000D03*
%TD*%
%TO.P,J3,3*%
%TO.N,col7*%
X291000000Y-145500000D03*
%TO.P,J3,4*%
%TO.N,col8*%
X288500000Y-133000000D03*
%TO.P,J3,5*%
%TO.N,col9*%
X288500000Y-143000000D03*
D17*
%TO.P,J3,1*%
%TO.N,col5*%
X291000000Y-130500000D03*
D16*
%TO.P,J3,2*%
%TO.N,col6*%
X291000000Y-138000000D03*
%TO.P,J3,E2*%
%TO.N,N/C*%
X301000000Y-135500000D03*
%TO.P,J3,E1*%
X301000000Y-140500000D03*
%TD*%
%TO.P,J2,3*%
%TO.N,row2conR*%
X318000000Y-130500000D03*
%TO.P,J2,4*%
%TO.N,row3conR*%
X320500000Y-143000000D03*
%TO.P,J2,5*%
%TO.N,Net-(J2-Pad5)*%
X320500000Y-133000000D03*
D17*
%TO.P,J2,1*%
%TO.N,row0conR*%
X318000000Y-145500000D03*
D16*
%TO.P,J2,2*%
%TO.N,row1conR*%
X318000000Y-138000000D03*
%TO.P,J2,E2*%
%TO.N,N/C*%
X308000000Y-140500000D03*
%TO.P,J2,E1*%
X308000000Y-135500000D03*
%TD*%
%TO.P,J1,3*%
%TO.N,row2*%
X291000000Y-166000000D03*
%TO.P,J1,4*%
%TO.N,row3*%
X288500000Y-153500000D03*
%TO.P,J1,5*%
%TO.N,Net-(J1-Pad5)*%
X288500000Y-163500000D03*
D17*
%TO.P,J1,1*%
%TO.N,row0*%
X291000000Y-151000000D03*
D16*
%TO.P,J1,2*%
%TO.N,row1*%
X291000000Y-158500000D03*
%TO.P,J1,E2*%
%TO.N,N/C*%
X301000000Y-156000000D03*
%TO.P,J1,E1*%
X301000000Y-161000000D03*
%TD*%
D18*
%TO.N,row1*%
X276000000Y-139000000D03*
X275000000Y-136000000D03*
X267000000Y-137000000D03*
X266000000Y-139000000D03*
%TO.N,row2conR*%
X322000000Y-146000000D03*
%TO.N,col8r*%
X332000000Y-166000000D03*
%TO.N,col6r*%
X332000000Y-158000000D03*
%TO.N,scl*%
X278000000Y-148000000D03*
%TO.N,sda*%
X277000000Y-147000000D03*
%TD*%
D19*
%TO.N,row0*%
X291077703Y-160346299D02*
X286267699Y-160346299D01*
X292300001Y-159124001D02*
X291077703Y-160346299D01*
X286267699Y-160346299D02*
X285391400Y-159470000D01*
X292300001Y-152300001D02*
X292300001Y-159124001D01*
X291000000Y-151000000D02*
X292300001Y-152300001D01*
%TO.N,row1*%
X290768699Y-158268699D02*
X291000000Y-158500000D01*
X281512701Y-158268699D02*
X290768699Y-158268699D01*
X280540000Y-159241400D02*
X281512701Y-158268699D01*
X275000000Y-138000000D02*
X275000000Y-136000000D01*
X276000000Y-139000000D02*
X275000000Y-138000000D01*
X267000000Y-138000000D02*
X266000000Y-139000000D01*
X267000000Y-137000000D02*
X267000000Y-138000000D01*
%TO.N,row2*%
X289075998Y-166000000D02*
X291000000Y-166000000D01*
X279310217Y-164244999D02*
X287320997Y-164244999D01*
X287320997Y-164244999D02*
X289075998Y-166000000D01*
X278000000Y-162934782D02*
X279310217Y-164244999D01*
X278000000Y-159698600D02*
X278000000Y-162934782D01*
%TO.N,row2conR*%
X318000000Y-136075998D02*
X318000000Y-130500000D01*
X322000000Y-140075998D02*
X318000000Y-136075998D01*
X322000000Y-146000000D02*
X322000000Y-140075998D01*
%TO.N,col7*%
X289800001Y-154124001D02*
X287924002Y-156000000D01*
X289800001Y-152335003D02*
X289800001Y-154124001D01*
X289699999Y-146800001D02*
X289699999Y-152235001D01*
X289699999Y-152235001D02*
X289800001Y-152335003D01*
X291000000Y-145500000D02*
X289699999Y-146800001D01*
X286778600Y-156000000D02*
X285848600Y-156930000D01*
X287924002Y-156000000D02*
X286778600Y-156000000D01*
%TO.N,col9*%
X288500000Y-143000000D02*
X288500000Y-147500000D01*
X288500000Y-147500000D02*
X289000000Y-148000000D01*
X287199999Y-149800001D02*
X287199999Y-153800001D01*
X289000000Y-148000000D02*
X287199999Y-149800001D01*
X285981399Y-153800001D02*
X285391400Y-154390000D01*
X287199999Y-153800001D02*
X285981399Y-153800001D01*
%TO.N,col6*%
X287199999Y-149163591D02*
X286749989Y-149613601D01*
X287199999Y-141800001D02*
X287199999Y-149163591D01*
X291000000Y-138000000D02*
X287199999Y-141800001D01*
X286749989Y-150948611D02*
X285848600Y-151850000D01*
X286749989Y-149613601D02*
X286749989Y-150948611D01*
D20*
%TO.N,col7r*%
X370275001Y-153124999D02*
X368000000Y-155400000D01*
X370275001Y-140755001D02*
X370275001Y-153124999D01*
X368020000Y-138500000D02*
X370275001Y-140755001D01*
X370275001Y-170124999D02*
X368000000Y-172400000D01*
X370275001Y-157675001D02*
X370275001Y-170124999D01*
X368000000Y-155400000D02*
X370275001Y-157675001D01*
X368000000Y-172400000D02*
X368000000Y-180000000D01*
X361991442Y-201843448D02*
X359024524Y-204810366D01*
X361991442Y-186008558D02*
X361991442Y-201843448D01*
X368000000Y-180000000D02*
X361991442Y-186008558D01*
D19*
X319378858Y-151000000D02*
X327000000Y-143378858D01*
X318000000Y-151000000D02*
X319378858Y-151000000D01*
X329914999Y-140786003D02*
X329914999Y-136085001D01*
X327322144Y-143378858D02*
X329914999Y-140786003D01*
X327000000Y-143378858D02*
X327322144Y-143378858D01*
X367494999Y-137974999D02*
X368020000Y-138500000D01*
X345235997Y-137974999D02*
X367494999Y-137974999D01*
X343235997Y-135974999D02*
X345235997Y-137974999D01*
X330025001Y-135974999D02*
X343235997Y-135974999D01*
X329914999Y-136085001D02*
X330025001Y-135974999D01*
D20*
%TO.N,col8r*%
X388275001Y-158624999D02*
X386000000Y-160900000D01*
X388275001Y-146175001D02*
X388275001Y-158624999D01*
X386000000Y-143900000D02*
X388275001Y-146175001D01*
X388275001Y-175624999D02*
X386000000Y-177900000D01*
X388275001Y-163175001D02*
X388275001Y-175624999D01*
X386000000Y-160900000D02*
X388275001Y-163175001D01*
D19*
X330699999Y-167300001D02*
X332000000Y-166000000D01*
X316764999Y-167300001D02*
X330699999Y-167300001D01*
X316699999Y-167235001D02*
X316764999Y-167300001D01*
X316699999Y-164764999D02*
X316699999Y-167235001D01*
X317964998Y-163500000D02*
X316699999Y-164764999D01*
X320500000Y-163500000D02*
X317964998Y-163500000D01*
D20*
%TO.N,col9r*%
X406275001Y-163624999D02*
X404000000Y-165900000D01*
X406275001Y-151175001D02*
X406275001Y-163624999D01*
X404000000Y-148900000D02*
X406275001Y-151175001D01*
X406275001Y-180624999D02*
X404000000Y-182900000D01*
X406275001Y-168175001D02*
X406275001Y-180624999D01*
X404000000Y-165900000D02*
X406275001Y-168175001D01*
D19*
X399138998Y-148900000D02*
X404000000Y-148900000D01*
X385997002Y-135000000D02*
X397674999Y-146677997D01*
X329464989Y-135898601D02*
X331888591Y-133474999D01*
X331888591Y-133474999D02*
X355150000Y-133474999D01*
X329464989Y-137314009D02*
X329464989Y-135898601D01*
X325614999Y-141163999D02*
X329464989Y-137314009D01*
X397674999Y-147436001D02*
X399138998Y-148900000D01*
X319729001Y-149699999D02*
X325614999Y-143814001D01*
X317375999Y-149699999D02*
X319729001Y-149699999D01*
X325614999Y-143814001D02*
X325614999Y-141163999D01*
X317375999Y-152300001D02*
X316699999Y-151624001D01*
X397674999Y-146677997D02*
X397674999Y-147436001D01*
X316699999Y-151624001D02*
X316699999Y-150375999D01*
X320637001Y-152300001D02*
X317375999Y-152300001D01*
X316699999Y-150375999D02*
X317375999Y-149699999D01*
X356675001Y-135000000D02*
X385997002Y-135000000D01*
X355150000Y-133474999D02*
X356675001Y-135000000D01*
X320500000Y-152437002D02*
X320637001Y-152300001D01*
X320500000Y-153500000D02*
X320500000Y-152437002D01*
D20*
%TO.N,col5r*%
X334215001Y-158624999D02*
X331940000Y-160900000D01*
X334215001Y-146175001D02*
X334215001Y-158624999D01*
X331940000Y-143900000D02*
X334215001Y-146175001D01*
X334215001Y-175624999D02*
X331940000Y-177900000D01*
X334215001Y-163175001D02*
X334215001Y-175624999D01*
X331940000Y-160900000D02*
X334215001Y-163175001D01*
X325911625Y-209740459D02*
X323427339Y-212224745D01*
X325911625Y-183928375D02*
X325911625Y-209740459D01*
X331940000Y-177900000D02*
X325911625Y-183928375D01*
D19*
X326840000Y-166000000D02*
X318000000Y-166000000D01*
X331940000Y-160900000D02*
X326840000Y-166000000D01*
D20*
%TO.N,col6r*%
X352275001Y-156124999D02*
X350000000Y-158400000D01*
X352275001Y-143675001D02*
X352275001Y-156124999D01*
X350000000Y-141400000D02*
X352275001Y-143675001D01*
X352275001Y-173124999D02*
X350000000Y-175400000D01*
X352275001Y-160675001D02*
X352275001Y-173124999D01*
X350000000Y-158400000D02*
X352275001Y-160675001D01*
X342275001Y-207222749D02*
X341226679Y-208271071D01*
X342275001Y-183124999D02*
X342275001Y-207222749D01*
X350000000Y-175400000D02*
X342275001Y-183124999D01*
D19*
X331474999Y-157474999D02*
X332000000Y-158000000D01*
X319025001Y-157474999D02*
X331474999Y-157474999D01*
X318000000Y-158500000D02*
X319025001Y-157474999D01*
%TO.N,mi*%
X276085997Y-171864999D02*
X268950099Y-164729101D01*
X268950099Y-156048501D02*
X270608600Y-154390000D01*
X277824999Y-171864999D02*
X276085997Y-171864999D01*
X268950099Y-164729101D02*
X268950099Y-156048501D01*
X279000000Y-173040000D02*
X277824999Y-171864999D01*
%TO.N,sc*%
X268500090Y-153501310D02*
X270151400Y-151850000D01*
X268500090Y-165080090D02*
X268500090Y-153501310D01*
X276460000Y-173040000D02*
X268500090Y-165080090D01*
%TO.N,mo*%
X269407299Y-157674101D02*
X270151400Y-156930000D01*
X269407299Y-162646301D02*
X269407299Y-157674101D01*
X276085997Y-169324999D02*
X269407299Y-162646301D01*
X277824999Y-169324999D02*
X276085997Y-169324999D01*
X279000000Y-170500000D02*
X277824999Y-169324999D01*
%TO.N,GND*%
X279000000Y-165420000D02*
X276460000Y-167960000D01*
D20*
%TO.N,col0*%
X181724999Y-164124999D02*
X184000000Y-166400000D01*
X181724999Y-151675001D02*
X181724999Y-164124999D01*
X184000000Y-149400000D02*
X181724999Y-151675001D01*
X181724999Y-181124999D02*
X184000000Y-183400000D01*
X181724999Y-168675001D02*
X181724999Y-181124999D01*
X184000000Y-166400000D02*
X181724999Y-168675001D01*
X272059901Y-129635382D02*
X272059901Y-158018699D01*
X268149508Y-125724989D02*
X272059901Y-129635382D01*
X240166009Y-125724989D02*
X268149508Y-125724989D01*
X229841008Y-136049990D02*
X240166009Y-125724989D01*
X212400482Y-142824999D02*
X219175491Y-136049990D01*
X201243999Y-142824999D02*
X212400482Y-142824999D01*
X194668998Y-149400000D02*
X201243999Y-142824999D01*
X272059901Y-158018699D02*
X270608600Y-159470000D01*
X219175491Y-136049990D02*
X229841008Y-136049990D01*
X184000000Y-149400000D02*
X194668998Y-149400000D01*
%TO.N,col1*%
X199724999Y-159124999D02*
X202000000Y-161400000D01*
X199724999Y-146675001D02*
X199724999Y-159124999D01*
X202000000Y-144400000D02*
X199724999Y-146675001D01*
X199724999Y-176124999D02*
X202000000Y-178400000D01*
X199724999Y-163675001D02*
X199724999Y-176124999D01*
X202000000Y-161400000D02*
X199724999Y-163675001D01*
X270151400Y-129070398D02*
X270151400Y-131530000D01*
X267756001Y-126674999D02*
X270151400Y-129070398D01*
X259715999Y-126674999D02*
X267756001Y-126674999D01*
X236132998Y-137000000D02*
X236907999Y-137775001D01*
X248615997Y-137775001D02*
X259715999Y-126674999D01*
X219568998Y-137000000D02*
X236132998Y-137000000D01*
X236907999Y-137775001D02*
X248615997Y-137775001D01*
X212168998Y-144400000D02*
X219568998Y-137000000D01*
X202000000Y-144400000D02*
X212168998Y-144400000D01*
%TO.N,col2*%
X217724999Y-153624999D02*
X220000000Y-155900000D01*
X217724999Y-141175001D02*
X217724999Y-153624999D01*
X220000000Y-138900000D02*
X217724999Y-141175001D01*
X217724999Y-170624999D02*
X220000000Y-172900000D01*
X217724999Y-158175001D02*
X217724999Y-170624999D01*
X220000000Y-155900000D02*
X217724999Y-158175001D01*
X230975476Y-203396153D02*
X230975476Y-204810366D01*
X226728648Y-200299028D02*
X227878351Y-200299028D01*
X227878351Y-200299028D02*
X230975476Y-203396153D01*
X220000000Y-193570380D02*
X226728648Y-200299028D01*
X220000000Y-172900000D02*
X220000000Y-193570380D01*
X221975001Y-140875001D02*
X220000000Y-138900000D01*
X233756001Y-140875001D02*
X221975001Y-140875001D01*
X234806003Y-139824999D02*
X233756001Y-140875001D01*
X251356001Y-139824999D02*
X234806003Y-139824999D01*
X252344703Y-140813701D02*
X251356001Y-139824999D01*
X269275101Y-140813701D02*
X252344703Y-140813701D01*
X270151400Y-141690000D02*
X269275101Y-140813701D01*
%TO.N,col3*%
X235724999Y-156124999D02*
X238000000Y-158400000D01*
X235724999Y-143675001D02*
X235724999Y-156124999D01*
X238000000Y-141400000D02*
X235724999Y-143675001D01*
X235724999Y-173124999D02*
X238000000Y-175400000D01*
X235724999Y-160675001D02*
X235724999Y-173124999D01*
X238000000Y-158400000D02*
X235724999Y-160675001D01*
X248773321Y-206856858D02*
X248773321Y-208271071D01*
X245518864Y-203602401D02*
X248773321Y-206856858D01*
X244757101Y-203602401D02*
X245518864Y-203602401D01*
X238000000Y-196845300D02*
X244757101Y-203602401D01*
X238000000Y-175400000D02*
X238000000Y-196845300D01*
X239975001Y-143375001D02*
X252624999Y-143375001D01*
X238000000Y-141400000D02*
X239975001Y-143375001D01*
X268703599Y-142324999D02*
X270608600Y-144230000D01*
X253675001Y-142324999D02*
X268703599Y-142324999D01*
X252624999Y-143375001D02*
X253675001Y-142324999D01*
%TO.N,col4*%
X253724999Y-158624999D02*
X256000000Y-160900000D01*
X253724999Y-146175001D02*
X253724999Y-158624999D01*
X256000000Y-143900000D02*
X253724999Y-146175001D01*
X253724999Y-175624999D02*
X256000000Y-177900000D01*
X253724999Y-163175001D02*
X253724999Y-175624999D01*
X256000000Y-160900000D02*
X253724999Y-163175001D01*
X266522661Y-210839955D02*
X266522661Y-212074745D01*
X262935219Y-207252513D02*
X266522661Y-210839955D01*
X262737455Y-207252513D02*
X262935219Y-207252513D01*
X256000000Y-200515058D02*
X262737455Y-207252513D01*
X256000000Y-177900000D02*
X256000000Y-200515058D01*
X267281400Y-143900000D02*
X270151400Y-146770000D01*
X256000000Y-143900000D02*
X267281400Y-143900000D01*
D19*
%TO.N,scl*%
X281770000Y-144230000D02*
X285391400Y-144230000D01*
X278000000Y-148000000D02*
X281770000Y-144230000D01*
%TO.N,sda*%
X282310000Y-141690000D02*
X285848600Y-141690000D01*
X277000000Y-147000000D02*
X282310000Y-141690000D01*
D20*
%TO.N,Net-(SW1-Pad2)*%
X268291400Y-134750000D02*
X270151400Y-136610000D01*
X267000000Y-134750000D02*
X268291400Y-134750000D01*
%TO.N,Net-(SW1-Pad1)*%
X267000000Y-130461400D02*
X270608600Y-134070000D01*
X267000000Y-128250000D02*
X267000000Y-130461400D01*
%TD*%
M02*
