%TF.GenerationSoftware,KiCad,Pcbnew,(5.1.9-0-10_14)*%
%TF.CreationDate,2021-06-06T18:46:05+01:00*%
%TF.ProjectId,dual_wield,6475616c-5f77-4696-956c-642e6b696361,rev?*%
%TF.SameCoordinates,Original*%
%TF.FileFunction,Soldermask,Top*%
%TF.FilePolarity,Negative*%
%FSLAX46Y46*%
G04 Gerber Fmt 4.6, Leading zero omitted, Abs format (unit mm)*
G04 Created by KiCad (PCBNEW (5.1.9-0-10_14)) date 2021-06-06 18:46:05*
%MOMM*%
%LPD*%
G01*
G04 APERTURE LIST*
%ADD10C,1.752600*%
%ADD11R,1.752600X1.752600*%
%ADD12C,1.397000*%
%ADD13C,1.700000*%
%ADD14C,2.000000*%
%ADD15C,3.400000*%
%ADD16O,1.700000X1.700000*%
%ADD17R,1.700000X1.700000*%
%ADD18C,1.950000*%
%ADD19C,2.400000*%
%ADD20R,1.950000X1.950000*%
%ADD21C,3.200000*%
%ADD22R,1.400000X1.200000*%
%ADD23R,1.200000X1.400000*%
G04 APERTURE END LIST*
D10*
%TO.C,U1*%
X283080000Y-159698600D03*
X280540000Y-159241400D03*
X278000000Y-159698600D03*
X275460000Y-159241400D03*
X272920000Y-159698600D03*
X270151400Y-131530000D03*
X285391400Y-159470000D03*
X270608600Y-134070000D03*
X270151400Y-136610000D03*
X270608600Y-139150000D03*
X270151400Y-141690000D03*
X270608600Y-144230000D03*
X270151400Y-146770000D03*
X270608600Y-149310000D03*
X270151400Y-151850000D03*
X270608600Y-154390000D03*
X270151400Y-156930000D03*
X270608600Y-159470000D03*
X285848600Y-156930000D03*
X285391400Y-154390000D03*
X285848600Y-151850000D03*
X285391400Y-149310000D03*
X285848600Y-146770000D03*
X285391400Y-144230000D03*
X285848600Y-141690000D03*
X285391400Y-139150000D03*
X285848600Y-136610000D03*
X285391400Y-134070000D03*
D11*
X285848600Y-131530000D03*
%TD*%
D12*
%TO.C,OL1*%
X281620000Y-162500000D03*
X279080000Y-162500000D03*
X276540000Y-162500000D03*
X274000000Y-162500000D03*
%TD*%
D13*
%TO.C,K?1*%
X189500000Y-143500000D03*
X178500000Y-143500000D03*
D14*
X179000000Y-147300000D03*
X184000000Y-149400000D03*
D15*
X184000000Y-143500000D03*
%TD*%
D13*
%TO.C,K35*%
X409500000Y-177000000D03*
X398500000Y-177000000D03*
D14*
X399000000Y-180800000D03*
X404000000Y-182900000D03*
D15*
X404000000Y-177000000D03*
%TD*%
D13*
%TO.C,K34*%
X409500000Y-160000000D03*
X398500000Y-160000000D03*
D14*
X399000000Y-163800000D03*
X404000000Y-165900000D03*
D15*
X404000000Y-160000000D03*
%TD*%
D13*
%TO.C,K33*%
X409500000Y-143000000D03*
X398500000Y-143000000D03*
D14*
X399000000Y-146800000D03*
X404000000Y-148900000D03*
D15*
X404000000Y-143000000D03*
%TD*%
D13*
%TO.C,K32*%
X391500000Y-172000000D03*
X380500000Y-172000000D03*
D14*
X381000000Y-175800000D03*
X386000000Y-177900000D03*
D15*
X386000000Y-172000000D03*
%TD*%
D13*
%TO.C,K31*%
X391500000Y-155000000D03*
X380500000Y-155000000D03*
D14*
X381000000Y-158800000D03*
X386000000Y-160900000D03*
D15*
X386000000Y-155000000D03*
%TD*%
D13*
%TO.C,K30*%
X391500000Y-138000000D03*
X380500000Y-138000000D03*
D14*
X381000000Y-141800000D03*
X386000000Y-143900000D03*
D15*
X386000000Y-138000000D03*
%TD*%
D13*
%TO.C,K29*%
X363416443Y-198044935D03*
X352583557Y-199955065D03*
D14*
X353735824Y-203610510D03*
X359024524Y-204810366D03*
D15*
X358000000Y-199000000D03*
%TD*%
D13*
%TO.C,K28*%
X373500000Y-166500000D03*
X362500000Y-166500000D03*
D14*
X363000000Y-170300000D03*
X368000000Y-172400000D03*
D15*
X368000000Y-166500000D03*
%TD*%
D13*
%TO.C,K27*%
X373500000Y-149500000D03*
X362500000Y-149500000D03*
D14*
X363000000Y-153300000D03*
X368000000Y-155400000D03*
D15*
X368000000Y-149500000D03*
%TD*%
D13*
%TO.C,K26*%
X373520000Y-132600000D03*
X362520000Y-132600000D03*
D14*
X363020000Y-136400000D03*
X368020000Y-138500000D03*
D15*
X368020000Y-132600000D03*
%TD*%
D13*
%TO.C,K25*%
X345379812Y-201356486D03*
X334620188Y-203643514D03*
D14*
X335899326Y-207256519D03*
X341226679Y-208271071D03*
D15*
X340000000Y-202500000D03*
%TD*%
D13*
%TO.C,K24*%
X355500000Y-169500000D03*
X344500000Y-169500000D03*
D14*
X345000000Y-173300000D03*
X350000000Y-175400000D03*
D15*
X350000000Y-169500000D03*
%TD*%
D13*
%TO.C,K23*%
X355500000Y-152500000D03*
X344500000Y-152500000D03*
D14*
X345000000Y-156300000D03*
X350000000Y-158400000D03*
D15*
X350000000Y-152500000D03*
%TD*%
D13*
%TO.C,K22*%
X355500000Y-135500000D03*
X344500000Y-135500000D03*
D14*
X345000000Y-139300000D03*
X350000000Y-141400000D03*
D15*
X350000000Y-135500000D03*
%TD*%
D13*
%TO.C,K21*%
X327336626Y-205169430D03*
X316663374Y-207830570D03*
D14*
X318067825Y-211396733D03*
X323427339Y-212224745D03*
D15*
X322000000Y-206500000D03*
%TD*%
D13*
%TO.C,K20*%
X337440000Y-172000000D03*
X326440000Y-172000000D03*
D14*
X326940000Y-175800000D03*
X331940000Y-177900000D03*
D15*
X331940000Y-172000000D03*
%TD*%
D13*
%TO.C,K19*%
X337440000Y-155000000D03*
X326440000Y-155000000D03*
D14*
X326940000Y-158800000D03*
X331940000Y-160900000D03*
D15*
X331940000Y-155000000D03*
%TD*%
D13*
%TO.C,K18*%
X337440000Y-138000000D03*
X326440000Y-138000000D03*
D14*
X326940000Y-141800000D03*
X331940000Y-143900000D03*
D15*
X331940000Y-138000000D03*
%TD*%
D13*
%TO.C,K17*%
X273286626Y-207680570D03*
X262613374Y-205019430D03*
D14*
X262179218Y-208827514D03*
X266522661Y-212074745D03*
D15*
X267950000Y-206350000D03*
%TD*%
D13*
%TO.C,K16*%
X261500000Y-172000000D03*
X250500000Y-172000000D03*
D14*
X251000000Y-175800000D03*
X256000000Y-177900000D03*
D15*
X256000000Y-172000000D03*
%TD*%
D13*
%TO.C,K15*%
X261500000Y-155000000D03*
X250500000Y-155000000D03*
D14*
X251000000Y-158800000D03*
X256000000Y-160900000D03*
D15*
X256000000Y-155000000D03*
%TD*%
D13*
%TO.C,K14*%
X261500000Y-138000000D03*
X250500000Y-138000000D03*
D14*
X251000000Y-141800000D03*
X256000000Y-143900000D03*
D15*
X256000000Y-138000000D03*
%TD*%
D13*
%TO.C,K13*%
X255379812Y-203643514D03*
X244620188Y-201356486D03*
D14*
X244319198Y-205177402D03*
X248773321Y-208271071D03*
D15*
X250000000Y-202500000D03*
%TD*%
D13*
%TO.C,K12*%
X243500000Y-169500000D03*
X232500000Y-169500000D03*
D14*
X233000000Y-173300000D03*
X238000000Y-175400000D03*
D15*
X238000000Y-169500000D03*
%TD*%
D13*
%TO.C,K11*%
X243500000Y-152500000D03*
X232500000Y-152500000D03*
D14*
X233000000Y-156300000D03*
X238000000Y-158400000D03*
D15*
X238000000Y-152500000D03*
%TD*%
D13*
%TO.C,K10*%
X243500000Y-135500000D03*
X232500000Y-135500000D03*
D14*
X233000000Y-139300000D03*
X238000000Y-141400000D03*
D15*
X238000000Y-135500000D03*
%TD*%
D13*
%TO.C,K9*%
X237416443Y-199955065D03*
X226583557Y-198044935D03*
D14*
X226416098Y-201874029D03*
X230975476Y-204810366D03*
D15*
X232000000Y-199000000D03*
%TD*%
D13*
%TO.C,K8*%
X225500000Y-167000000D03*
X214500000Y-167000000D03*
D14*
X215000000Y-170800000D03*
X220000000Y-172900000D03*
D15*
X220000000Y-167000000D03*
%TD*%
D13*
%TO.C,K7*%
X225500000Y-150000000D03*
X214500000Y-150000000D03*
D14*
X215000000Y-153800000D03*
X220000000Y-155900000D03*
D15*
X220000000Y-150000000D03*
%TD*%
D13*
%TO.C,K6*%
X225500000Y-133000000D03*
X214500000Y-133000000D03*
D14*
X215000000Y-136800000D03*
X220000000Y-138900000D03*
D15*
X220000000Y-133000000D03*
%TD*%
D13*
%TO.C,K5*%
X207500000Y-172500000D03*
X196500000Y-172500000D03*
D14*
X197000000Y-176300000D03*
X202000000Y-178400000D03*
D15*
X202000000Y-172500000D03*
%TD*%
D13*
%TO.C,K4*%
X207500000Y-155500000D03*
X196500000Y-155500000D03*
D14*
X197000000Y-159300000D03*
X202000000Y-161400000D03*
D15*
X202000000Y-155500000D03*
%TD*%
D13*
%TO.C,K3*%
X207500000Y-138500000D03*
X196500000Y-138500000D03*
D14*
X197000000Y-142300000D03*
X202000000Y-144400000D03*
D15*
X202000000Y-138500000D03*
%TD*%
D13*
%TO.C,K2*%
X189500000Y-177500000D03*
X178500000Y-177500000D03*
D14*
X179000000Y-181300000D03*
X184000000Y-183400000D03*
D15*
X184000000Y-177500000D03*
%TD*%
D13*
%TO.C,K1*%
X189500000Y-160500000D03*
X178500000Y-160500000D03*
D14*
X179000000Y-164300000D03*
X184000000Y-166400000D03*
D15*
X184000000Y-160500000D03*
%TD*%
D16*
%TO.C,JADNS1*%
X279000000Y-173040000D03*
X276460000Y-173040000D03*
X279000000Y-170500000D03*
X276460000Y-170500000D03*
X279000000Y-167960000D03*
X276460000Y-167960000D03*
X279000000Y-165420000D03*
D17*
X276460000Y-165420000D03*
%TD*%
D18*
%TO.C,J4*%
X318000000Y-151000000D03*
D19*
X313000000Y-151000000D03*
X313000000Y-166000000D03*
D18*
X320500000Y-163500000D03*
X320500000Y-153500000D03*
D20*
X318000000Y-166000000D03*
D18*
X318000000Y-158500000D03*
X308000000Y-161000000D03*
X308000000Y-156000000D03*
%TD*%
%TO.C,J3*%
X291000000Y-145500000D03*
D19*
X296000000Y-145500000D03*
X296000000Y-130500000D03*
D18*
X288500000Y-133000000D03*
X288500000Y-143000000D03*
D20*
X291000000Y-130500000D03*
D18*
X291000000Y-138000000D03*
X301000000Y-135500000D03*
X301000000Y-140500000D03*
%TD*%
%TO.C,J2*%
X318000000Y-130500000D03*
D19*
X313000000Y-130500000D03*
X313000000Y-145500000D03*
D18*
X320500000Y-143000000D03*
X320500000Y-133000000D03*
D20*
X318000000Y-145500000D03*
D18*
X318000000Y-138000000D03*
X308000000Y-140500000D03*
X308000000Y-135500000D03*
%TD*%
%TO.C,J1*%
X291000000Y-166000000D03*
D19*
X296000000Y-166000000D03*
X296000000Y-151000000D03*
D18*
X288500000Y-153500000D03*
X288500000Y-163500000D03*
D20*
X291000000Y-151000000D03*
D18*
X291000000Y-158500000D03*
X301000000Y-156000000D03*
X301000000Y-161000000D03*
%TD*%
D21*
%TO.C,H2*%
X295320000Y-173710000D03*
%TD*%
%TO.C,H1*%
X294950000Y-200820000D03*
%TD*%
D22*
%TO.C,D36*%
X395000000Y-175600000D03*
X395000000Y-179000000D03*
%TD*%
%TO.C,D35*%
X395000000Y-158600000D03*
X395000000Y-162000000D03*
%TD*%
%TO.C,D34*%
X395000000Y-141300000D03*
X395000000Y-144700000D03*
%TD*%
%TO.C,D33*%
X377000000Y-170600000D03*
X377000000Y-174000000D03*
%TD*%
%TO.C,D32*%
X377000000Y-153300000D03*
X377000000Y-156700000D03*
%TD*%
%TO.C,D31*%
X377000000Y-136300000D03*
X377000000Y-139700000D03*
%TD*%
D23*
%TO.C,D30*%
X364000000Y-177000000D03*
X360600000Y-177000000D03*
%TD*%
D22*
%TO.C,D29*%
X359000000Y-165000000D03*
X359000000Y-168400000D03*
%TD*%
%TO.C,D28*%
X359000000Y-148300000D03*
X359000000Y-151700000D03*
%TD*%
%TO.C,D27*%
X359000000Y-130710000D03*
X359000000Y-134110000D03*
%TD*%
D23*
%TO.C,D26*%
X346000000Y-180000000D03*
X342600000Y-180000000D03*
%TD*%
D22*
%TO.C,D25*%
X341000000Y-168000000D03*
X341000000Y-171400000D03*
%TD*%
%TO.C,D24*%
X341000000Y-151000000D03*
X341000000Y-154400000D03*
%TD*%
%TO.C,D23*%
X341000000Y-134000000D03*
X341000000Y-137400000D03*
%TD*%
D23*
%TO.C,D22*%
X328000000Y-182000000D03*
X324600000Y-182000000D03*
%TD*%
D22*
%TO.C,D21*%
X323000000Y-170300000D03*
X323000000Y-173700000D03*
%TD*%
%TO.C,D20*%
X323000000Y-153000000D03*
X323000000Y-156400000D03*
%TD*%
%TO.C,D19*%
X323000000Y-136000000D03*
X323000000Y-139400000D03*
%TD*%
D23*
%TO.C,D18*%
X249300000Y-182000000D03*
X252700000Y-182000000D03*
%TD*%
D22*
%TO.C,D17*%
X247000000Y-171000000D03*
X247000000Y-174400000D03*
%TD*%
%TO.C,D16*%
X247000000Y-153300000D03*
X247000000Y-156700000D03*
%TD*%
%TO.C,D15*%
X247000000Y-136300000D03*
X247000000Y-139700000D03*
%TD*%
D23*
%TO.C,D14*%
X231000000Y-180000000D03*
X234400000Y-180000000D03*
%TD*%
D22*
%TO.C,D13*%
X229000000Y-167600000D03*
X229000000Y-171000000D03*
%TD*%
%TO.C,D12*%
X229000000Y-150600000D03*
X229000000Y-154000000D03*
%TD*%
%TO.C,D11*%
X229000000Y-134000000D03*
X229000000Y-137400000D03*
%TD*%
D23*
%TO.C,D10*%
X213300000Y-178000000D03*
X216700000Y-178000000D03*
%TD*%
D22*
%TO.C,D9*%
X211000000Y-165000000D03*
X211000000Y-168400000D03*
%TD*%
%TO.C,D8*%
X211000000Y-148000000D03*
X211000000Y-151400000D03*
%TD*%
%TO.C,D7*%
X211000000Y-131300000D03*
X211000000Y-134700000D03*
%TD*%
%TO.C,D6*%
X193000000Y-171000000D03*
X193000000Y-174400000D03*
%TD*%
%TO.C,D5*%
X193000000Y-154000000D03*
X193000000Y-157400000D03*
%TD*%
%TO.C,D4*%
X193000000Y-137000000D03*
X193000000Y-140400000D03*
%TD*%
%TO.C,D3*%
X175000000Y-176000000D03*
X175000000Y-179400000D03*
%TD*%
%TO.C,D2*%
X175000000Y-159000000D03*
X175000000Y-162400000D03*
%TD*%
%TO.C,D1*%
X175000000Y-142000000D03*
X175000000Y-145400000D03*
%TD*%
M02*
