%TF.GenerationSoftware,KiCad,Pcbnew,(5.1.9-0-10_14)*%
%TF.CreationDate,2021-06-06T18:46:05+01:00*%
%TF.ProjectId,dual_wield,6475616c-5f77-4696-956c-642e6b696361,rev?*%
%TF.SameCoordinates,Original*%
%TF.FileFunction,Paste,Top*%
%TF.FilePolarity,Positive*%
%FSLAX46Y46*%
G04 Gerber Fmt 4.6, Leading zero omitted, Abs format (unit mm)*
G04 Created by KiCad (PCBNEW (5.1.9-0-10_14)) date 2021-06-06 18:46:05*
%MOMM*%
%LPD*%
G01*
G04 APERTURE LIST*
%ADD10R,1.400000X1.200000*%
%ADD11R,1.200000X1.400000*%
G04 APERTURE END LIST*
D10*
%TO.C,D36*%
X395000000Y-175600000D03*
X395000000Y-179000000D03*
%TD*%
%TO.C,D35*%
X395000000Y-158600000D03*
X395000000Y-162000000D03*
%TD*%
%TO.C,D34*%
X395000000Y-141300000D03*
X395000000Y-144700000D03*
%TD*%
%TO.C,D33*%
X377000000Y-170600000D03*
X377000000Y-174000000D03*
%TD*%
%TO.C,D32*%
X377000000Y-153300000D03*
X377000000Y-156700000D03*
%TD*%
%TO.C,D31*%
X377000000Y-136300000D03*
X377000000Y-139700000D03*
%TD*%
D11*
%TO.C,D30*%
X364000000Y-177000000D03*
X360600000Y-177000000D03*
%TD*%
D10*
%TO.C,D29*%
X359000000Y-165000000D03*
X359000000Y-168400000D03*
%TD*%
%TO.C,D28*%
X359000000Y-148300000D03*
X359000000Y-151700000D03*
%TD*%
%TO.C,D27*%
X359000000Y-130710000D03*
X359000000Y-134110000D03*
%TD*%
D11*
%TO.C,D26*%
X346000000Y-180000000D03*
X342600000Y-180000000D03*
%TD*%
D10*
%TO.C,D25*%
X341000000Y-168000000D03*
X341000000Y-171400000D03*
%TD*%
%TO.C,D24*%
X341000000Y-151000000D03*
X341000000Y-154400000D03*
%TD*%
%TO.C,D23*%
X341000000Y-134000000D03*
X341000000Y-137400000D03*
%TD*%
D11*
%TO.C,D22*%
X328000000Y-182000000D03*
X324600000Y-182000000D03*
%TD*%
D10*
%TO.C,D21*%
X323000000Y-170300000D03*
X323000000Y-173700000D03*
%TD*%
%TO.C,D20*%
X323000000Y-153000000D03*
X323000000Y-156400000D03*
%TD*%
%TO.C,D19*%
X323000000Y-136000000D03*
X323000000Y-139400000D03*
%TD*%
D11*
%TO.C,D18*%
X249300000Y-182000000D03*
X252700000Y-182000000D03*
%TD*%
D10*
%TO.C,D17*%
X247000000Y-171000000D03*
X247000000Y-174400000D03*
%TD*%
%TO.C,D16*%
X247000000Y-153300000D03*
X247000000Y-156700000D03*
%TD*%
%TO.C,D15*%
X247000000Y-136300000D03*
X247000000Y-139700000D03*
%TD*%
D11*
%TO.C,D14*%
X231000000Y-180000000D03*
X234400000Y-180000000D03*
%TD*%
D10*
%TO.C,D13*%
X229000000Y-167600000D03*
X229000000Y-171000000D03*
%TD*%
%TO.C,D12*%
X229000000Y-150600000D03*
X229000000Y-154000000D03*
%TD*%
%TO.C,D11*%
X229000000Y-134000000D03*
X229000000Y-137400000D03*
%TD*%
D11*
%TO.C,D10*%
X213300000Y-178000000D03*
X216700000Y-178000000D03*
%TD*%
D10*
%TO.C,D9*%
X211000000Y-165000000D03*
X211000000Y-168400000D03*
%TD*%
%TO.C,D8*%
X211000000Y-148000000D03*
X211000000Y-151400000D03*
%TD*%
%TO.C,D7*%
X211000000Y-131300000D03*
X211000000Y-134700000D03*
%TD*%
%TO.C,D6*%
X193000000Y-171000000D03*
X193000000Y-174400000D03*
%TD*%
%TO.C,D5*%
X193000000Y-154000000D03*
X193000000Y-157400000D03*
%TD*%
%TO.C,D4*%
X193000000Y-137000000D03*
X193000000Y-140400000D03*
%TD*%
%TO.C,D3*%
X175000000Y-176000000D03*
X175000000Y-179400000D03*
%TD*%
%TO.C,D2*%
X175000000Y-159000000D03*
X175000000Y-162400000D03*
%TD*%
%TO.C,D1*%
X175000000Y-142000000D03*
X175000000Y-145400000D03*
%TD*%
M02*
